<mxfile host="app.diagrams.net" agent="Mozilla/5.0 (Windows NT 10.0; Win64; x64) AppleWebKit/537.36 (KHTML, like Gecko) Chrome/130.0.0.0 Safari/537.36" version="24.8.4">
  <diagram name="PÃ¡gina-1" id="lAU9k5rqFOxM9mXbGoWf">
    <mxGraphModel dx="1434" dy="744" grid="1" gridSize="10" guides="1" tooltips="1" connect="1" arrows="1" fold="1" page="1" pageScale="1" pageWidth="1169" pageHeight="827" math="0" shadow="0">
      <root>
        <mxCell id="0" />
        <mxCell id="1" parent="0" />
        <mxCell id="vAN7nZ3J5e_nSbxVUmtw-9" value="" style="endArrow=classic;html=1;rounded=0;" parent="1" edge="1">
          <mxGeometry width="50" height="50" relative="1" as="geometry">
            <mxPoint x="1030" y="395" as="sourcePoint" />
            <mxPoint x="1090" y="395" as="targetPoint" />
          </mxGeometry>
        </mxCell>
        <mxCell id="vAN7nZ3J5e_nSbxVUmtw-96" value="" style="ellipse;whiteSpace=wrap;html=1;aspect=fixed;" parent="1" vertex="1">
          <mxGeometry x="1030" y="530" width="60" height="60" as="geometry" />
        </mxCell>
        <mxCell id="vAN7nZ3J5e_nSbxVUmtw-118" value="" style="ellipse;whiteSpace=wrap;html=1;aspect=fixed;" parent="1" vertex="1">
          <mxGeometry x="1040" y="610" width="40" height="40" as="geometry" />
        </mxCell>
        <mxCell id="vAN7nZ3J5e_nSbxVUmtw-120" value="" style="ellipse;whiteSpace=wrap;html=1;aspect=fixed;fillColor=#000000;" parent="1" vertex="1">
          <mxGeometry x="1055" y="625" width="10" height="10" as="geometry" />
        </mxCell>
        <mxCell id="vAN7nZ3J5e_nSbxVUmtw-141" value="" style="line;strokeWidth=2;html=1;rotation=90;" parent="1" vertex="1">
          <mxGeometry x="1020" y="465" width="80" height="10" as="geometry" />
        </mxCell>
        <mxCell id="Y1r3UeCyyB8JhXB7fy54-2" value="" style="line;strokeWidth=2;html=1;rotation=90;" vertex="1" parent="1">
          <mxGeometry y="235" width="80" height="10" as="geometry" />
        </mxCell>
        <mxCell id="Y1r3UeCyyB8JhXB7fy54-3" value="" style="line;strokeWidth=2;html=1;rotation=90;" vertex="1" parent="1">
          <mxGeometry y="475" width="80" height="10" as="geometry" />
        </mxCell>
        <mxCell id="Y1r3UeCyyB8JhXB7fy54-4" value="alumnos&amp;nbsp;&lt;div&gt;equipo A&lt;/div&gt;" style="text;html=1;align=center;verticalAlign=middle;resizable=0;points=[];autosize=1;strokeColor=none;fillColor=none;" vertex="1" parent="1">
          <mxGeometry x="5" y="280" width="70" height="40" as="geometry" />
        </mxCell>
        <mxCell id="Y1r3UeCyyB8JhXB7fy54-5" value="alumnos&amp;nbsp;&lt;div&gt;equipo B&lt;/div&gt;" style="text;html=1;align=center;verticalAlign=middle;resizable=0;points=[];autosize=1;strokeColor=none;fillColor=none;" vertex="1" parent="1">
          <mxGeometry x="5" y="518" width="70" height="40" as="geometry" />
        </mxCell>
        <mxCell id="Y1r3UeCyyB8JhXB7fy54-6" value="" style="endArrow=classic;html=1;rounded=0;" edge="1" parent="1">
          <mxGeometry width="50" height="50" relative="1" as="geometry">
            <mxPoint x="50" y="239.8" as="sourcePoint" />
            <mxPoint x="110" y="239.8" as="targetPoint" />
          </mxGeometry>
        </mxCell>
        <mxCell id="Y1r3UeCyyB8JhXB7fy54-7" value="" style="endArrow=classic;html=1;rounded=0;" edge="1" parent="1">
          <mxGeometry width="50" height="50" relative="1" as="geometry">
            <mxPoint x="50" y="479.8" as="sourcePoint" />
            <mxPoint x="110" y="479.8" as="targetPoint" />
          </mxGeometry>
        </mxCell>
        <mxCell id="Y1r3UeCyyB8JhXB7fy54-8" value="" style="ellipse;whiteSpace=wrap;html=1;aspect=fixed;" vertex="1" parent="1">
          <mxGeometry x="120" y="210" width="60" height="60" as="geometry" />
        </mxCell>
        <mxCell id="Y1r3UeCyyB8JhXB7fy54-9" value="" style="ellipse;whiteSpace=wrap;html=1;aspect=fixed;" vertex="1" parent="1">
          <mxGeometry x="120" y="450" width="60" height="60" as="geometry" />
        </mxCell>
        <mxCell id="Y1r3UeCyyB8JhXB7fy54-10" value="fila equipo A" style="text;html=1;align=center;verticalAlign=middle;resizable=0;points=[];autosize=1;strokeColor=none;fillColor=none;" vertex="1" parent="1">
          <mxGeometry x="105" y="270" width="90" height="30" as="geometry" />
        </mxCell>
        <mxCell id="Y1r3UeCyyB8JhXB7fy54-11" value="fila equipo B" style="text;html=1;align=center;verticalAlign=middle;resizable=0;points=[];autosize=1;strokeColor=none;fillColor=none;" vertex="1" parent="1">
          <mxGeometry x="105" y="420" width="90" height="30" as="geometry" />
        </mxCell>
        <mxCell id="Y1r3UeCyyB8JhXB7fy54-12" value="" style="line;strokeWidth=2;html=1;rotation=90;" vertex="1" parent="1">
          <mxGeometry x="160" y="355" width="320" height="10" as="geometry" />
        </mxCell>
        <mxCell id="Y1r3UeCyyB8JhXB7fy54-13" value="" style="endArrow=classic;html=1;rounded=0;" edge="1" parent="1">
          <mxGeometry width="50" height="50" relative="1" as="geometry">
            <mxPoint x="190" y="239.58" as="sourcePoint" />
            <mxPoint x="250" y="239.58" as="targetPoint" />
          </mxGeometry>
        </mxCell>
        <mxCell id="Y1r3UeCyyB8JhXB7fy54-14" value="" style="endArrow=classic;html=1;rounded=0;" edge="1" parent="1">
          <mxGeometry width="50" height="50" relative="1" as="geometry">
            <mxPoint x="190" y="220" as="sourcePoint" />
            <mxPoint x="250" y="220" as="targetPoint" />
          </mxGeometry>
        </mxCell>
        <mxCell id="Y1r3UeCyyB8JhXB7fy54-15" value="" style="endArrow=classic;html=1;rounded=0;" edge="1" parent="1">
          <mxGeometry width="50" height="50" relative="1" as="geometry">
            <mxPoint x="190" y="260" as="sourcePoint" />
            <mxPoint x="250" y="260" as="targetPoint" />
          </mxGeometry>
        </mxCell>
        <mxCell id="Y1r3UeCyyB8JhXB7fy54-16" value="" style="endArrow=classic;html=1;rounded=0;" edge="1" parent="1">
          <mxGeometry width="50" height="50" relative="1" as="geometry">
            <mxPoint x="190" y="500" as="sourcePoint" />
            <mxPoint x="250" y="500" as="targetPoint" />
          </mxGeometry>
        </mxCell>
        <mxCell id="Y1r3UeCyyB8JhXB7fy54-17" value="" style="endArrow=classic;html=1;rounded=0;" edge="1" parent="1">
          <mxGeometry width="50" height="50" relative="1" as="geometry">
            <mxPoint x="190" y="479.58000000000004" as="sourcePoint" />
            <mxPoint x="250" y="479.58000000000004" as="targetPoint" />
          </mxGeometry>
        </mxCell>
        <mxCell id="Y1r3UeCyyB8JhXB7fy54-18" value="" style="endArrow=classic;html=1;rounded=0;" edge="1" parent="1">
          <mxGeometry width="50" height="50" relative="1" as="geometry">
            <mxPoint x="190" y="460.00000000000006" as="sourcePoint" />
            <mxPoint x="250" y="460.00000000000006" as="targetPoint" />
          </mxGeometry>
        </mxCell>
        <mxCell id="Y1r3UeCyyB8JhXB7fy54-19" value="" style="endArrow=classic;html=1;rounded=0;" edge="1" parent="1">
          <mxGeometry width="50" height="50" relative="1" as="geometry">
            <mxPoint x="360" y="359.58" as="sourcePoint" />
            <mxPoint x="480" y="360" as="targetPoint" />
          </mxGeometry>
        </mxCell>
        <mxCell id="Y1r3UeCyyB8JhXB7fy54-20" value="" style="ellipse;whiteSpace=wrap;html=1;aspect=fixed;" vertex="1" parent="1">
          <mxGeometry x="510" y="330" width="60" height="60" as="geometry" />
        </mxCell>
        <mxCell id="Y1r3UeCyyB8JhXB7fy54-21" value="Equipos jugando" style="text;html=1;align=center;verticalAlign=middle;resizable=0;points=[];autosize=1;strokeColor=none;fillColor=none;" vertex="1" parent="1">
          <mxGeometry x="475" y="390" width="110" height="30" as="geometry" />
        </mxCell>
        <mxCell id="Y1r3UeCyyB8JhXB7fy54-22" value="" style="line;strokeWidth=2;html=1;rotation=90;" vertex="1" parent="1">
          <mxGeometry x="600" y="355" width="320" height="10" as="geometry" />
        </mxCell>
        <mxCell id="Y1r3UeCyyB8JhXB7fy54-23" value="" style="endArrow=classic;html=1;rounded=0;" edge="1" parent="1">
          <mxGeometry width="50" height="50" relative="1" as="geometry">
            <mxPoint x="600" y="359.58" as="sourcePoint" />
            <mxPoint x="720" y="360" as="targetPoint" />
          </mxGeometry>
        </mxCell>
        <mxCell id="Y1r3UeCyyB8JhXB7fy54-25" value="inicio del juego" style="text;html=1;align=center;verticalAlign=middle;resizable=0;points=[];autosize=1;strokeColor=none;fillColor=none;" vertex="1" parent="1">
          <mxGeometry x="270" y="518" width="100" height="30" as="geometry" />
        </mxCell>
        <mxCell id="Y1r3UeCyyB8JhXB7fy54-26" value="fin del juego" style="text;html=1;align=center;verticalAlign=middle;resizable=0;points=[];autosize=1;strokeColor=none;fillColor=none;" vertex="1" parent="1">
          <mxGeometry x="715" y="518" width="90" height="30" as="geometry" />
        </mxCell>
        <mxCell id="Y1r3UeCyyB8JhXB7fy54-27" value="" style="ellipse;whiteSpace=wrap;html=1;aspect=fixed;" vertex="1" parent="1">
          <mxGeometry x="520" y="620" width="40" height="40" as="geometry" />
        </mxCell>
        <mxCell id="Y1r3UeCyyB8JhXB7fy54-28" value="" style="ellipse;whiteSpace=wrap;html=1;aspect=fixed;fillColor=#000000;" vertex="1" parent="1">
          <mxGeometry x="535" y="635" width="10" height="10" as="geometry" />
        </mxCell>
        <mxCell id="Y1r3UeCyyB8JhXB7fy54-29" value="esperando jugadores&amp;nbsp;" style="text;html=1;align=center;verticalAlign=middle;resizable=0;points=[];autosize=1;strokeColor=none;fillColor=none;" vertex="1" parent="1">
          <mxGeometry x="470" y="660" width="140" height="30" as="geometry" />
        </mxCell>
        <mxCell id="Y1r3UeCyyB8JhXB7fy54-30" value="" style="curved=1;endArrow=classic;html=1;rounded=0;entryX=0.93;entryY=0.567;entryDx=0;entryDy=0;entryPerimeter=0;" edge="1" parent="1" target="Y1r3UeCyyB8JhXB7fy54-12">
          <mxGeometry width="50" height="50" relative="1" as="geometry">
            <mxPoint x="490" y="640" as="sourcePoint" />
            <mxPoint x="390" y="605" as="targetPoint" />
            <Array as="points">
              <mxPoint x="300" y="700" />
              <mxPoint x="200" y="570" />
            </Array>
          </mxGeometry>
        </mxCell>
        <mxCell id="Y1r3UeCyyB8JhXB7fy54-31" value="" style="curved=1;endArrow=classic;html=1;rounded=0;exitX=0.917;exitY=0.15;exitDx=0;exitDy=0;exitPerimeter=0;" edge="1" parent="1" source="Y1r3UeCyyB8JhXB7fy54-22">
          <mxGeometry width="50" height="50" relative="1" as="geometry">
            <mxPoint x="805" y="640" as="sourcePoint" />
            <mxPoint x="590" y="640" as="targetPoint" />
            <Array as="points">
              <mxPoint x="870" y="520" />
              <mxPoint x="860" y="700" />
            </Array>
          </mxGeometry>
        </mxCell>
        <mxCell id="Y1r3UeCyyB8JhXB7fy54-32" value="" style="shape=image;verticalLabelPosition=bottom;labelBackgroundColor=default;verticalAlign=top;aspect=fixed;imageAspect=0;image=data:image/png,iVBORw0KGgoAAAANSUhEUgAAAtsAAADQCAYAAADWKK1CAAAAAXNSR0IArs4c6QAAAARnQU1BAACxjwv8YQUAAAAJcEhZcwAADsMAAA7DAcdvqGQAANrsSURBVHhe7J0JXNR1/v9fDAwiN8qNoByyihKiJCpgiFemuWneplmYXf/WzA7ywHbt+rW1mllp6lZrdnhinqV5IZqmCabmrQjCIHLpcI0z8/5/vjPDMcx8vzMD2Fb7efaYnO/1+bzvz3uG78zYEQMcDofD4XA4HA6n1ZEZ/uVwOBwOh8PhcDitDG+2ORwOh8PhcDicuwRvtjkcDofD4XA4nLsEb7Y5HA6Hw+FwOJy7BG+2ORwOh8PhcDicuwRvtjkcDofD4XA4nLsEb7Y5HA6Hw+FwOJy7BG+2ORwOh8PhcDicuwRvtjkcDofD4XA4nLsEb7Y5HA6Hw+FwOJy7BG+2ORwOh8PhcDicu4TNzba2+BD+/foCvPV1jmFPK6O+hK3/WoDXPtiFaxrDPhHUl7biXwtewwe7rhn23A1qcePcMWTu3YtDvxSgyrD3f4GqvX/HgwMGYvLSbKgN+zgcDofD4XA41mPabKt/wvxYJ8js7GDX6CFzfRCflgA1u97D39L/gfmvfmK4oHVRn12D19L+gb+/+Do25GsNe82hxtk1ryHtH3/Hi69vMOxrBtoSHPn4cfRqL4e9cwqW5DbMWXN8CcZ080dQ13vRPyUFCTGd0KnvS9iukJLLDModeDrCCfYyeziFTse3FYb9v3NqLx3Brn378MPPebzZ5nA4HA6Hw2kGps225hZKStUgez8kPv4yXnnlFf1j9gT0dAWcBs3CotfmY+FbTxouaF0cIsdj/hvzkf7uPDzcQeqNdwdEjp+PN+an4915Dxv22Uh5Jt4cFov7nv0UPzOdteo7UGnIcFCD/N3f4PvSMAx77Dk8N7U/OsjVKD7yPtI++Nmm5rPiuzXYeEUFmb0MqmubsHpbqeEIh8PhcDgcDufPjHg3K/PFfU+/gbffflv3eOvvkxHTRjhAICJoWGNah0aRhU9emYqRg1Iw+K+P4tVVP+KG4c1f9Zl1rCF+A+tzTuHL2aMxaMQr+LZIOKhG3p4P8MKk4RiYMgwTnv8A+wo0bF6CVjisucPaXQPqPOz54AVMGj4QKcMm4PkP9kF/qhb6U+vO1KL0xBr8/YkxuD8lBYP+OhUvLd2DayrD4SaoL+zEhl9DMWPZP/Cgp51hbx326DT1Pzh54Ti+XbUESz7fjLeGu8GONCi4Zss7vWXYsXYnbso6Y8oTA+BCZdi9dku9fQQ0RQex7MXJGDFQkJnZ74uTqDQcY8ZF1ievYOrIQUgZ/Fc8+uoq/NhgXKxjL0zeWJ+DU1/OxuhBI/DKt0VQmbW5GmUn1+Ofs6bioSEpSBk6GtMXfIWTjd9lL8/G6jlTMHzQYIz+23Icu1X3wqMODRRZn+CVqSMxKGUw/vroq1j14w2dDwR/nln3BnuhtB45p77E7NGDMOKVb6FztbYUJ9b8HU+MuR8pKYPw16kvYemeaxBxC4fD4XA4HM6fB9Y4G1Ozm54OsSfIo2nuT3cMOxuozZxFkQ4gefybum3NjS301F+cyE7mQkHRPekvPo5kZ+dKvdJ/pGp2vPzfI6gNHKhjZBi1sWOdujyOFp5WUeGGxyjM0Y7snPypa69uFOjsQOF/2y9cQCPagGRek2i9MICmkDY8FkaOdnbk5N+VenULJGeHcPrb/lrD2DLymrReOJFu7phJ0S5sTHk7iojtQWFeciaLnDpO/pquawRpm6CppEphjsp1NNHTjsmWSP+8pNYfa0rZAZp9jzCeK6UsuUwiZ5ly4z80ylNGDpGzaP+Vj2iIIJ/bA/RJgUGgO7/QW/1c2bhtKbBbHPUI96K298wlnek1N2jLU38hJzsZuQRFU8+/+Ojs4NornX7UG1dnK4eOkRTWhskPOcUtPE0l5mye9RmN8mByuAdT97he9BffNmxOewp6dBOVCnKoL9Hy4d7EXn0JHTZ72JFjG+ZLZl+/x75lvtTQjS1P0V+c7EjmEkTRPf9CPoL/XHtRul4Y+veINgSHjhQZxsZmY8jjFtJp1U3aMTOaXJjc8nYRFNsjjLzkgo860uSvr7NRORwOh8PhcP68iDfb9U0Xe7CGtdeCHBL6P+NmW02nXu/NGkAHinxuD2u3WH947RMazppLWcDjtIX1YPqGGGTnGEmPf3OBShSFVFqTQ6/1Yo2rfTBN3VCka7iqL+2gtfsKTJrtOzmvUS/WnNkHT6UNRboz6dKOtbSPNatGzfadU7TwXtYcynxp1Ke5umb4zsUPaSiTxU5+Ly08JdEeizbbt2j7KwMpoU8v6tyejS33pT7Pfk0Xag2HLaIhxaoHyYPZJ/xv+6hGk0sfpLRlTa4LDVqaq280by6noUxf+07P0G6hZ6VKyr+Ur3uhoj71OvVmDa1D5HO0R29c+mS4J8lkAfS43rg6W8HOkSIf/4YulCiosFRt3uZVp2jjyi109pa+vVWfXkhxcjZv6P+jPTXMVsfm0T1sW+bRn/5xqIhunvyUpv6FyVrXbKtP0eu9mQ0cIuk5vTB07ZPh5CmTUcDjW5i8hmZbaNIjH6dvLpSQorCUak4tpHuZDjLfUfRprs4rdPHDoew61nzfu5Ck3MLhcDgcDofzR0f8NhKje7ZfRuqAIDP3nFTgyOFfcAdyOBZsx1tpaZiz9EdUONpBW3IZl+rvlbCD67A5+Oe4CLTz84fXrR/x42k14JaAB+/31Y3rFHY/xt4XoD+9EWU//gj9qQ/ifl/dmQi7fyzuC2giTVkWsn65A7gk4uGHQ2DPdjmEPoy/xrFXBupfkX2yRn+ejQgfDoWdDG2cnWCvLsaxNW/izW/OW3cLhFaBjHV7cUvWAUP/2gdt2L8jRrJ/UYWs9RuRK9z94tYDcX9xhDZ3BSb0GY0XPz4CdWAQ05JZ98hhCCrJHQuw/a00pM1Zih8rHGGnLcHlS3W3bzDxXIdhzj/HIaKdH/y9BM11e41t3rYbRk28B6XfrcC7Cxcg/dNjuM1aY6quQhX79/bJbFxQ28Gp/2P4f3190T56Gha9mAxHw2hMGBzWC4OC7W8hLW0Olv5YAUc7LUouX2q4LcbOFcPm/BPjItrBz98Lt7KydDq4JD6Mh0N0XkHow39FnANB/Ws2mukWDofD4XA4nD8E4s1243u233odT9/X3vRkrRK3KzUgaHDzbBYyMzORefAstBF9kDgwEVEedVfYwcHFFc6GLc3tW1BqhDdk28BRXAKGBrdvKaEhOzi2cZQQlp2pvK0f08EJbeWGnTIXuLjI2Oxq3FHVdYO24Ib739qFg4eO4perl7Hz/3WFXcVJfD5rATZb8Y0i2vyNWHegEkS3sHtOChISkjDp3+eZPISaw+uw7hLrth17Y97a1Xjx/jCoT2fgvWcHo9f97+B4rRbK25VMd6bbzbPIEmybeRBntRHokzgQiVEe9fawc3CBa51x6zG2uVaxGU/fG4WEcc/jn2u2YQ/z0816k2hRXVmls3MbNze0NextfBe7ltm3Ui8MzmYJsmTi4FktIvokYmBiFBpc7QCXemE0TAe9/xyc2rKXZHpkLswvMja68IHU5riFw+FwOBwO5w+CZKtrEVk7+Ps6s6ZMjp7PZyAzKwtZusdBZG5fiMEehvOaYN/ODz5OdtCW/YLj5w0fNdSWIe/6bf3zeuzRzs8HTnZalP1yHA2n5qHpqfbtAuDblo2pzMWl64YPTKrP4hxraMm+A0LDdJ/utAEtyvPyUF7XDMq80D26o65hJOVNFFcLB8px7Is3seDtb3BSqTurERpc3bAeh6rt4NqhI7wNbzjbuYago7cDoDqGDevOsbMAp7+Mwzvbz+Bq9qeYFGqHkqx/4+vjarTz94Uz60nlPZ9HRmadbbNwMHM7FooZ1yxaFG36EJ/9WoOgx9bi/NljOLx7DhLrul8WBh6+3mwu1uD/etJg59s4cy6//t1zWTt/+OqFwfMZmfWyZB3MxPaFg2FeGua/AF+0FcbNvYQGt5zDJda423cIhc4t5cfwxZsL8PY3J/UncDgcDofD4fxJEG+2tTew/+O5SEtL0z1eXfA5jtV/RUYdzkgeORDedlXY9fpjSF+1EVu/XYuVb83EI2kbjL5xwwj3gRgxwBOyOyfw3tiRePKF/4cJ/aKRuOCA4YQG3AeOwABPGe6ceA9jRz6JF/7fBPSLTsSCA03uP3BLwV8HtodMfQTvP/MaPtu0Hstm/Q3Lzqjh1H0CJsXX3xDRQHkWVsx/FWkLvsYvwnDaXHz37hy8+vevcEpVgx0v3IPOMQ9g2t9exAszRmHQK9+jmuzg0nsoBvgw01XtxP89Mw//mDsTi/Y2kUdzCevX/4gaO188vORAQ3OalYmtr/RFG9zBiQ2sSb/2McbeOxZzPvwGe07m47aKYMca+/bt7OGcPBIDve1Qtet1PJa+Chu3fou1K9/CzEfSsEHUuOaQwUEuZ/9nLyBydmLdN59iwZSF+K7RvTBtEwahn7sd7uS8j0fGPYtnx96HkYtOMSkNOCdj5EBv2FXtwuuPpWPVxq34du1KvDXzEaRtaLilpSluKX/FwPYyqI+8j2de+wyb1i/DrL8twxm1E7pPmATBLVU7/w/PzPsH5s5cZLiKw+FwOBwO50+C4d7tBu4cpXkx+m+TEA7XPeycUuiDfI3Jt5GQJp++fbE/BToK34ZhOFfWljo9to5ussO3vxpHnvZyCnpiG9Xor9Bx59KXND3Gk+yFeyqEa9p2otGfnBUuoHGe9iQPeoK26S64Q5e+nE4xbJ9eJjtq22k0fXJWbTS2gObaZpqdFECOhjGFD3a275lK/z6l++ShCeqzb1EfeYPcdQ8714foP+Vqurj6cYppJ6+3haBXcPIsWnfJ8AnJ2oP0aowryT0T6M1s429u0RR8TEOcZeQY+hTtUBp2GlBfET646UB2bZLonzk76YVubiSrs4NjIA1I30Mlus8xaij/2xepf6DwrSAG+exkTP/HaJ3euE1spceszUt30ytxBnvb2ZNXr0dpYh8Xknd6lnbrTqqmnKUjKUT3rSZMDucIGpX+HN3nIqeOT3+vG0eT/y292D+wwb7MFzLmt8f0wtBX49j48iB6orEwwgcpN8+mpIAGHezk7aln6r+pzi21B1+lGFc5eSYYYorD4XA4HA7nT4Kd8D/WAFlNzfbpiBi5CsUJ76F2/wuGvYCq5DxyTufjNrnAr3N3dA10sXyPiuY2rp48gcu32iIkOgYR7cy8+2xAc/sqTp64jFttQxAdEwHxU1UoPpeNM9er4OjfBbFR/roPGzab2hs4d/Isrivt0T6sO7p39NB9+LJV0VQwO+TgcrkcAd16oqtvk1teVCU4n3Ma+bcJLn6d0b1rIFyacwOQppzNcwq5qgDExIXD04wiVQUn8fMFJdp1jUOUrzkjq1ByPgen82+DXPzQuXtXBFojjKoY57LP4HqVI/y7xCLKv0Ve4XA4HA6Hw/lDYEOzrULW63/FUx/tw+nCOwh8YivyP7nfcIzD4XA4HA6Hw+E0xYb3Rwm1Ny/j8k17BPZ5EovmDDbs53A4HA6Hw+FwOOaw+TYSDofD4XA4HA6HYx3NufOXw+FwOBwOh8PhWAFvtjkcDofD4XA4nLsEb7Y5HA6Hw+FwOJy7BG+2ORwOh8PhcDicuwRvtjkcDofD4XA4nLsEb7Y5HA6Hw+FwOJy7BG+2ORwOh8PhcDicuwRvtjkcDofD4XA4nLsEb7Y5HA6Hw+FwOJy7BG+2ORwOh8PhcDicuwRvtjkcDofD4XA4nLsEb7Y5HI4o2toKlClVhi0Oh8Ph/G5R3UZ5pcawwfk9Yb7Z1t7GpazN+GLVSqzedADnylrHeapDC5CSNBf7aw07/rSocGhBCpLm7odFVVWH8dqABKTt/dMbpfko83D6+HEcP34COWeuoLjGsL8Z2BqDLYvZKhScYXIfO44TOb/iWnkrN62a68hcsxr7cpuRnxbjToNzK8ci0j8c93SLw9923aX4bIkOdw0Nrmeuwep9uezZ74//nTraOvwe7KUqvoRfzlxHpWFbjwqHXxuAhLS9hu3GSB37rTCWQXX4NQxISNM957Q2NvQMYqhOYOF9XTFq2a9QG3aZ0uDTZs3ze+1X/gB9lGmzrT6HlWOi0XfGCuw7cRRbFz2KpNSvoDQcbglUUYDz5/JQRoYdf1oIFQXncS6vjD2zAFWg4OJ55Jf/6Y3STDS4vGwSeg14GDP+9iyemNAfkQFdMGbJsWbFpK0x2JKY1Vz5GBN6DsDDTz6HZ1JHoXfHEMSl/hunLb5YUOHIe5MxffkpiaLJqMrCstmzsTSz3LDDBizFnfoE/rPkO4T8/Thyc7OxeGAbw4FWpiU63DWqkLVsNmYvzUSLpVIdwXuTp2P5KUlP2sT/Th1tHf7r9tJcxkfjohFzT3/WDDROfmGduIjz+eaiTOrYb4WxDIIdL57P1z3/72NljfzDYEPPYBYNzn38MtYELMSq57vDwbDXlAafNmue32u/chfkUh15D5OnL0drlW6TZlt1dAX+ubMj0rZ9i5VLP8E3B37FqY9HwNlwXIeqAkWFxbDurxVqKIsVKBN9waFCRVEhis0MpqpQoLC0BlrDdgPi10Bbg7LCAtxQWm8hVUURbtxuOF9bU4ois/OykK4sQaGiDDXmDqqVKGbHxFW10m6WdFDfRnFJpVn56tDWlEGhKGeWaooGlSWFUJSZ109ArSxGUau9Cyv4vwjmhhNkLCy4AUuu0mo0sO88DZ/uP4SjJ6/g+NsR2DfnZfz7amMNJGLCYgw2pfkxa4RGDbV9Z0z79AAOHzuLq4dfgdemWZj172uGEwTMjaVG3vGd2JWtMPvOqvp2MUoqme5u47BGcQPrH2lvOCKCTflqQF0ERYkLQjr5sSLB/rPlhjMhD4rMxZ6ZuBTRQTLPBETn0KKmrBAFN5TMiuaxnO9uGLdGgRvrH4GRVJbsaE4mdR6O79yFbIXpRRZ1NKKVYtJqxPPWBKl6xWymKCw1q6Pgh8LiSvN/PTBb49S4XVwCIfR1SNbJFtrLzPy2+asBzflvsPbXRIwbosTmNT80eXe7NRHsU2y2nlqqtfU1xWak625z5ZGqIXqsrJF1aCpRUsjiQbygSMS7UFMUUJg5KBUT4v1LI1qxZ7Dv+SK++HAywuwN+xpjNp80Op3FbGJLvIvnMosPRSFKLQ3SnNoqhkY4V0zuJjVEAnXecezclQ0zpbt5tYCaULvvbxTepgfN/anasKcx5XTk/XHUPSCAQiOCyDuoH83cmEtqw9GmaBQ7KK1/EHn5d6TgjvGU+vT95OczhTYZhi4/8j6N6x5AAaERFOQdRP1mbqRcYTD1RfoitQcF+Hak8A5+FDruU8rVWLiGaujwW0Oos48PhURGkL+nN/VI/ZIuiwhXmzWfkkek0/J591P3iBBq7xlKD334M/2y+glKiOxEfm5eFP3EN4axGeVHaemkWCZTMHXu5ENeIcn0wqarBt01pNiRRv2DvMi/YzB1jE+lp+/3I58pm0ivqoTdanbQEx28afJG4UwpHWopa34yDZ+3mJ7t4U4yeTdKO1IrHDBGU0S7FwylMJ8ACgsPIr/QgfTmoRrdofKjS2lSbAD5BnemTj5eFJL8Am26qtegzh6fpA+jbmEh5OPqTXEzN1OBwe5Nqdn7MsUnzqPMOhFqD9L8xHh6eY8wl17WEemfUPqwbhQW4kOu3nE0c3MBsxSj5jC9NaQz+fiEUGSEP3l696DULy+LxJGaLrzdl5x7LqCcO/o9d7LTKdapO835Sb9DPCYsx2BTmh2zZlBfeJv6OvekBXWCa67R4gFO1GHGTt2m2bFUCvpsQjh5u9iTg5svdQgOp7Er80lTm0Xzk4fTvMXPUg93Gcm7pdGR22xfUm968Qe9f02xNu6aUPIlTY1gPrO3J1efDtSxz1w6WFtDe1+Op8R5mcy7emoPzqfE+JdJ73JBvhGU/kk6DesWRiE+ruQdN5M21wWQWFwK1zXWQSrPLMxRc/gtGtLZh3xCIinC35O8e6TSl4YCYFu+C/GbRL1f/IFlpICEHSVk0ig+ownh3uRi70Buvh0oOHwsrcxnskrWElNaMyZblLcmSNUrNV38IpV6BPhSx/AOzN/j6NOGIk7vj+tOAQGhFBHkTUH9ZtJGncDma5zOd8Pn0eJne5C7TE7d0jIla33z7SVSY230lzF36ER6T/Ib+yVd3TCFAvwn0/pywyFmvx1PdCDvyRsN240xPibtNybiof+j4SxnhfXH3zeQOnQIprBRH9OVSolaa66m1I2vo4kMO56gDt6Tdc8FpOKu+fJI1JA6NDbUyNpyOrp0EsWyOAzu3Il8vEIo+YVNpF/2LMe7pmg3LRgaRj4BYRQexHqRgW+SbjmVigmJ/qWBFvQMRtjaM9zS+bTd0Jn04uAu1Ck0kDy9ouiRf//KzjYgpVvTdUM0lwUzfEGpPVi/0TGcOviF0rhPc3X7jWlebTVBJ1c7GjrzRRrcpROFBnqSV9Qj9O9f9VqZ1pAjEjlVRYrPJlC4twvZO7iRL4vd8LErSSjdLakFJs021fxMbyV6ktyXFalFO+mS0rCfUbl3JkX6DaHFpyrZlpryv5pIIYGseJTqjxujpJ1PdiLP/m/TSeYXdeH39GKcG9m3NxS9yr00M9KPhiw+RbrR8r+iiSGBNJkNVrt/JnX2HUNrbgjaVdK1C7m6c6SuEQLr5OY1lJmvLz61Z9+h/m5d6aXDRtWjHqFwBLXxpqS5e+mGRkMFn49iDWZ76j5hBZ1mg9ecXEi9XaLo5R+F6ytpz3OR5NmbNR2lgkzVdHrJ/eTTfiStus62lTvpyU6e1P/tk+yImgq/f5Hi3OypvSFxJO1mFLxSOgiFL4ic2obQA+8epMuXL1B+I9/UcWtrKoV4D6bFp4XxNFT683raepJdX7mHnov0pN5zD5JehdO05H4faj9yFQkq1NkjMW0XKVjkVP74KsU496D0E4ZGsQnVGVPJLyiVtgnTCNRsp+lBPjRF51y9rG28Eyltl4JpXEk/vhpDzj3SSTdc7UnavCaT9GrW0tl3+pNb15fIvKsMzXbMHDp0s4xuXDlEyyd1Js+e8+iw3rgSMWEhBk1ofsyaw6TZVv5Az4a3pb5vnZUcS11dRKvHeFFw6mYqKr9F1UImC3ES5ERtQx6gdw9epssX8knZtPA1wfq4a4qaqm+spUf8/emRtUVUrhQcU00ZU/0oKHWbYTEQXD6dguqaGJ18bcg7MY126QOIXo1xph7pJ1i7IRGXRnJYyDMLc9Se3ExrMvNZ9AkbZ+md/m7U9aXDwha71JZ8b2gydFJZsqOoTMyORatpjFcwpW5mdrwlVAcLOprQujHZorw1QaJe1e6nmZ19acyaG7rGpfLaBcoVBGRj7p0ZSX5DFpPenPn01cQQCpy8nkpFapzOd05tKeSBd+ng5ct0Ib9Uok62xF7m5rfVX02oPUwvR/nTxLVlRLe/pceC2tPo1TcMBxvizBTjY5J+U1+gd5M8qFf6MSadhm5unU4RHabS+pvMaVK1Vhe7TWqKcFo9xjIYNdtSdmyRPOL53Rhra+SNPc9RpGdvmnuwVBeH1aeX0P0+7WnkquvCBTp/i8f7LdqaGkLegxeTvmyV0s/rt9LJWumYEO1fGtOSnsEIW3sG/T57pyiawZraO+y/ix8/QN7tHqLPFHp5LdbgRvVaPJdraf/MzuQ7Zg2rt8Kp1+iCvgAY0fza2gTdufbkFDWDNfvs6J2L9PED3tTuoc9IUMu0higt5FQ1Fa0eQ17BqbS5qJxu6QKsZbXA9I/DbWKRtv0APnvUG5mvjUD3qEGYu/06tKjF0Q1bcCNuOJId8nDu3EUouyUgpuow9uWY+SOI6ji2/1CChKmPI9oJsPcfjIXpY+BrmLH26AZsuRGH4ckOyDt3DheV3ZAQU4XD+3Jwx8MT7tWnsGv7KZRrnREcEaK7jUXqmlo4InrkJCQG2UNZlIs8jT+C3YtRUCj+Pr+d21A8Py8ZPjIZ/O5LQldtCEa/Og1RbLI2kX0R53Mdl6+o2cRZ+CZDgcSnZiHBS1DACVGpT2GYwz5s3XObqbodP5QkYOrj0eyIPfwHL0T6GF/DPTq22M2yDo5JaVg2KwGhoREIcjHsrKcWBzN24tZ90zAtihmdSeAV+zCGRzsyFb5BhiIRT7Fr9SpEIfWpYXDYtxVMBR2CPWYtGAQ/e8C5xyAk+F7DhYtW/eHGDHZwGzoLCwb5MYs4o8egBPheuwDdcI7RGDkpEUH2ShTl5kHjHwz34gJIuArqXz/C6JhIhEUmYvaZB/Dl9r+jD1NRMiYsxKAJLYhZ0T8DaktxcvMqfPLh23juocexxulxzHm8s+RYaidXOMntYCd3hoeHG5zq/yzoiKS0ZZiVEIrQiCCYuN8IG/PVCHs4uTlBbmcHuZM7PFwcDfstYOeGobMWYJA+gDAowRfXLlyESiIujbCQZzpE5xDCaiQmJQbBXlmE3DwN/IPdUVxQqL+OYXW+G2GFHUVlYnZ0NdjR2QMezKb21ujYmLsRk5JI5K0JEvVK5gFP92qc2rUdp8q1cA6OQIi+iGPDlhuIG54Mh7xzOHdRiW4JMag6vA915jRb4xyTkLaM2Sw0FBFBXuLztoK9jOZ3sNFfTag99CU2lQ/CmCGegGsKxg5zxp6vNkvWOptR5yO30BUx93Zj0rHc6nEPgsuvIb+SyWux1tpSUxqQtGNL5JHI78bYW1UjvZH9TQYUiU+xbS/deuwUlYqnhjlg39Y9+tOl4r32IDJ23sJ901iN0JUtL8Q+PBzRJB0TMpH+pTH/3Z7BDh4j0/HeqBA4sP/CJ05EkvogfjjMlLalPknmsgwenu6oPrUL20+VQ+scjAhdAWhMS2qrGew8MDL9PYwKcQAcwjFxYhLUB3+AoJYOoxpiIdLtneDqJIednRzOHh5wEwLM1trdBL1vm+IWjUnvbMXps/vwRq9LeHfq3/DljTtQKIpRdWQJpo4fj/HCY8oK5IVHo5NHfaQ3oC5C0U1X+Pm7GXYwWzjY10+oUShQXHUES6Yaxho/BSvywhHdyQNtYmZjxbsJODunL0KjHsTczVd0xpW6xp69HLi+bQ6GRgYivM8wjJ64EN/f1IIsFDU7w79wdNQtivXbdo5wlGuhEe7XUV1HQYk7AgNd9ccEHAIQ0F6NkuJypmoRbrr6oUFVOzjY12tqg90s6WAHRx9/1iwYNk1QoaioDJ5+/iwMjFFdL0CJeyCMVQhAe3UJitliWEeD/nKd/mqxe6ison40Nhyzr1atv6dLex3b5gxFZGA4+gwbjYkLv8dNLUne2+bQfSa+u3oDiuP/QmLhGnyw6apuLMmYsBCDJrQgZs1kgB4SvpHkBHLOl8Jn9FIcylqKEWzlb9ZYLCZ9/H3E5TfClrhrRRoCCHJHObS6ABKPSyMs5Fk9ZucQwmob5gyNRGB4HwwbPRELv78JbZMCUH+pVL4bYaUdRWQywVod67gbMWmRemWM89YEiXrlEIPZK95Fwtk56BsahQfnbsYVfRGHorgKR5ZMNcg7HlNW5CE8uhP05jRf4+wcfeBfv1Ni3hbbq8n8tvrLiErsWZOBPK87OPnRW3jrrSX4qdYbqv1fYf01qWpnI21iMKAvsPP9N/HVd9uwcsFK5HRJRv9ApoSlWmtTTWlA0o4tkUfA2lwyh5E+KlwvKIF7YCAavOeAgID2UJcUG7YFROJdxWKpzJPFUpOqZSEmHET6l8b8t3sGGdOz/kOUTj7wca9EaSlrcG2Jd8lcdkDM7BV4N+Es5vQNRdSDc7FZVwAa08q1lXld7tjw0VAnHx+4V5ZCUEvAuIY0gxbVArFm24CDfwL+9vp0xFSeQc4lLdzYK0iXgW/iUHY2sg2PE8cyMDvWzGdf7V3g6lyJsjpNGUQNnxSVubFXCy4D8eahhrGyTxxDxuxYFgRuiJ2xEocvncbaidVYNe05rFZopa+p3YM3nv0Iqhn7kHuFyXt0GcYKyd0ayN3h3laJ0rJGwaItxs1yR3j7eTJVXeFcWVbvVKYp09XwlJnYaru1WAc53NyccLu83GRxlLu7o62yFMYq3ES5ozf8PJthJ5k97O7cwR3DppDdjdwrSe2eN/DsRyrM2JeLK2dycHTZWFirpkv0s/i/pzti3+IP8SOzt2RMWIhBE1oUsyLYd8D9ry7Fh++/g/SnR6Crh3639FiCMRoWgOZhQ9xZiczeDneYz+sgtkha53LxuDTCQp5JU4s9bzyLj1QzsC/3Cs7kHMWysYHSBc4qWmjHpq60VcfWjskW5K0JFuqVW+wMrDx8CafXTkT1qml4brVCEBgebi4Y+OahBnmzT+BYxmxYHZZS87a2vVoSkxXf46vttejVJwzqykpUsocquA/6eP6Ir9dekM6Fpkj5TXUGh352Q6/IImz6aDl+aDMVX294VWfPltRaKSTt+JvI0zSxzCGHu3tbKEvLGjW7WhTfLIejt59hWwK5G9ycbqO8vImnLMaE+f6lMf/9nqFR0qvKUKZ0Rbt2bWyLd0u57BaLGSsP49LptZhYvQrTnlutv66e1l+jjNUqg9K1HQS1zGKhFppEWIvWJ/14jdCiYPtSvL/5FEqEv6ZqivHj2u9wwbkr7gl3xr3JfeBw4Gusa/SduKqKclQZnhsh74m+PWX4ccs26OJMeRwf/CtD/5zheG8y+jgcwNfrGn2XraoC5WywmvM/IbuY7XXqhJTxKeh45zYqaqSvgaYcZbfk8AsOhBPTo/TIbhwrMQ7wZuPYFwMTZMj8ei2u6ibWIG/D59ipTsGoFDemal/0lP2ILdsUulfoyuMf4F8Z+ufsYuvt1mIdHNG7f29o9q/HFoOhK7LX4MssJVNhIBJkmazI698RhiYPGz7fCXXKKDAVbMYhOBj+ytPIPi8EnhI/LXoPm25YJ6umvAy35H4IDnRiIVeKI7uPwXo1HdD90UfRt+AbrNxZIR0TFmLQhBbErK1YGqutcxsoS26avCNiPTbEnVU4IDjYH8rT2dC7/Ccsem8TrHO5eFwaYSHPpNGgvOwW5H7B0IfVEew+VmLIwZbQUju2hXMbJUpuGjxpq46tHJMtyVsTpOpVzXn8lF3MZHJCp5TxSOl4B7f1RRzJfRxw4Ot1aDCnChW2JJHUvK2dw5b8pc3DloXPYsHGKw3jGSjZ9iV22g3HK++/iddff13/eGMx/jG+A06s/RpnxL6JwwySflMVIL+oCnfcojD4oXEYNag73NVVOnlaVmvFkbTjbySP5RrpiL4DEyDL/Bpr9c5jy94GfL5TjZRRKbptSRx7o39vDfav32KInwpkr/kSWSrpmBDrXxrz3+0ZCOU7lmLRUeHWB9bzZaxDpn0CBvZ1tBzvjZHM5Rqc/ykbejOkYHxKR9y5XaE/pZ5WXqOoHDuWLoJerQJkrMuEfcJACGqZw2ItbOuMNsoS1JXulq1PJs026+RvHcfSR3rAz5W9qnMJQPIHSoxZ+k9M9HWA74R38P4Dl/FSXBT6DR6KlD5dEJH4dxxqeBOhAZk/Ji6Yi24Hn0F8/AD0iZ+B4/1Go5ezcJcQO+w7Ae+8/wAuvxSHqH6DMTSlD7pEJOLvbLDqs6swPqYrS5QBiBu0GNVTnseEEJnkNXAehOnTQ/DdM/Hol9ATSekKdOzcFg5iL5Dkcji2afSnFHs528X2OdS9lnGAI9uW64QNwJR3FmHoxZcR3z0JA/vfg/hX8jBm+WJM9Gdy+U/EgrndcJDNHT+gD+JnHEe/0b3grJtcZsFuwryObF721IIOwnltGv2ZxBQZgh99G//oeQhPxfXCgJReiB29CldkTMaAKXhn0VBcfDke3ZMGov898XglbwyWL54IpoKpPdgzwR5yB/Ovkh2iH8XzI0rw7qBYJMT3xTNn+mNsrLO4rA56+wrDOQ+ajukh3+GZ+H5I6JmEdEVHdG6rjwtz2AvXsevrXCMLGY/Hhqiw7evvcFsqJizEoAktiFmzCDHFDCKvj6kGpMdyRJ8Hh8FzxwtIui8J01blsZLIxnJso4+Tesztq8OGuDOHHdNZsLm8IR+iH30eI0rexaDYBMT3fQZn+o9FbL0tTWVxEOKHJZDw1YFicWl0nYU8k57DGYOmT0fId8x3/RLQMykdio6d0bYhIK3Pd0ZD/FphR1GZGI598OAwT+x4IQn3JU3Dqut+FnRsQivHZEvy1gSpelV9FqvGx6Are5E/IG4QFldPwfMTQgSBMeGd9/HA5ZcQF9UPg4emoE+XCCT+/ZDunmmzNa6p76TmbaG9TOa3FJPqfGR9sxpfHciFce9cgV0Z+9F22BikGN0eyhqMcQ8j/OwWbDqr1tnWsam+Bhofk/Sbc28MSdTg7JGf8VPWHmxb83+YGtcNIz86izaStdY0dptiJB97LnfUdy7Sa3HryWOUS0ZYUyNlCJjyDhYNvYiX47sjaWB/3BP/CvLGLMfiif66MyTjXRaMR9/+B3oeegpxvQYgpVcsRq+6ApmDdEyI9S+NaVnP0Ihm9Axyh7boMiACe6f0xL333Yv4v51A3zfewEQ/JqM1NZiNqRtSMpercXbVeMR0ZQ3qgDgMWlyNKc9P0M3fQAtrqxHMZ227YEDEXkzpeS/uuzcefzvRF2+8MRGCWuyiJv2NhZxiOPZ5EMM8d+CFpPuQNG0V8mDJNtLYkZm/q2srr+PML5dR4eCLiKjO8HNuPJAWyrxTOHmlAvbe4ejeJRAuEvNob+ci52QBHMN7opu/6fv5WmUeTp28ggp7b4R374JAw2CqkvPIPlMEWVA0YsM8je4/FLuGVT6UXs7BuRJPdO0VjubcHSGJpgJXT57CtRoPdI7pjgCj+/21uJ2bg5MFjgjv2Q2mqlprt9bQoQaK0ydwocIdEUyWgEa3nGkqruLkqWuo8eiMmO4BrEVpAdpK5P2Sg3x5OHpF+bHyZwPqUlzOOYcSz67oFe5pJnlsQzwm2DELMdiU5sZscxAfS4uKK8dZPLVBeOw9CGy2o2zLV0toK/PwS04+5OG9EOVnk8cZ4nFphGSeSaMuvYyccyXw7NoL4a1aAFpgR20Frhw/iYI24Yi9J1Cfczbq2Kox2ZK8NUGiXqlKcD77DIpkQYiODYOncRFH3qmTuFJhD+/w7ugS6GJjDZCuk62ewy2IyVZDxG+qzFmIHqvA6+e+wljdbWpqZKfHIfHHJ3Fp59Pw07ZurW2MOTv+dvJYWyM1qLh6Eqeu1cCjcwy62+q8GgVOn7iACvcI9OwWgPqyJRETUv1LA//dnkGrvIacnOuQh8UymzQpxrbEu2guq1ByPhtnimQIio5FmFEBaExrrlFsrGs5yLkuR1gsk1tsjanDQi3UVlzBcVZH2oTH4p66AGtmLTDbbHM4HA6Hw/n9ozr6KnqmZCDmjbfxZB8/aPMP4MM576Dgsb3YnxZt9G7eb8HvTR4O5/cAb7Y5HA6Hw/nDUolfN/wLi77MwoWbNXDw7IR7//o0Zk2Ll/jmqrvJ700eDue/D2+2ORwOh8PhcDicuwR/ncnhcDgcDofD4dwleLPN4XA4HA6Hw+HcJXizzeFwOBwOh8Ph3CV4s83hcDgcDofD4dwl/vvNtuoQFqQkYe7+pt/WzqnHyEYaXM9cg9X7Gv1yl1U097q7TG0hjm//EqtWfIYN+86hrDnC/c/FkAqHFqQgae5+3Q+BSKI6jNcGJCBt75/FNr/TOGZormdizep9jX5N7XeO5joy16zGvt9a4Gbnawt936w6auG81qo9f5I8VeadxvHjx3DsmOFx/BdcE37R78/M78F3RjL8Xmvk77d2/xb895ttqkDB+XPIK/ujfimKCkfem4zpy0/Bhl/ftQ0jG1Uha9lszF6aiXL9UbOojryHydOX41S9UNZdV4fp9a3P7WPvY3T3zkiYugAffvI+Xnk4FuF903GwyU/bWqS5MaQ6gvcmT8fyu6nkXYFQUXAe5/LK2DMLCLa5eB755X+WLx2yLY5/S6qylmH27KXI/L0JJkZVFpbNno2lv7XAza75LfR9M+qoxfOarUsT/mt52orrl+Yylk3qhQEPP4mZM2caHi9i1TGJJrQlNfj3Ur9/DzXWSIbfa438/dbu36LfkW62NZUoVpSixtxP7bNjJYUKlJk9yFDfRnFJJcR+pV+tLIaiTDwJNZUlKFSUmZ1bVaFAYWmN6Nj1SMlvCVUFigqLUSnyEkx9uxgllcLAauQd34ld2Yomr9a0qCkrRMENpZkipkKFohClFgQzbyM3jFujwI31j6C9YY+58dR5x7FzVzYU9UKZu06PME9Rucqwpcf0ej3amjIUFtyA0kxQWu0XgYpdSJv4Co52/yeOXr2An386gYt5v+Cz0X5Q1Y8tZUMx+xjQ1qCssAA3zAlahzoPx3fuQnZTJXWocbu4BDoXG5CKSR1qJYqLypk3TBHsplCYO6ZBZUkh08MKuwnjs/lFs8ZCzEIjyCciv6Vr62DnKQrN5RSLwaJCFIsnjGQ9ENBUMn+KxU/99eJxrNPhxu2GWGExUFokkv9W57cBS/WO4TZuDRQ31uMR0wQTiQvpOiBlD1VFEQqLK82+QyQWayb73cZhjeIG1jcRuPlx3oJ8ZVicV8r3ErlnfR01h/nzLOkihVQNNUXIqxu43RDUqCktEokZCznIvKIsLoJxqRdbvxjW1oR6tNBo7NF52qfYn5WFLOFx8Dv8fUCjn0ZsWj/EanCL6rd0HAo6N63t4vlkaSwRrJG/HlN5pGxvOX6sjW2GTXJawlx8NUZcLnM9iI6m8dIYyf5OIhcEnRUKIznF+h02iYX12YzvxBC+Z9uI2oM0776RNP/jV2lI11AKC/Ikzy4TacXpWsMJ5XR06SSKDfCl4M6dyMcrhJJf2ERX1cKxWsqan0zD5y2mZ3u4k0zejdKO1F1nQKOgHWn9KcjLnzoGd6T41Kfpfj8fmrKpWn+8/CgtnRRLAb7B1LmTD3mFJNMLm66Sbnj1RfoitQc71pHCO/hR6LhPKVeju6oBS/LX7KWX4xNpXmadXLV0cH4ixb+8h2p02+V05P1x1D0ggEIjgsg7qB/N3Jirn782i+YnD6d5i5+lHu4ykkc9R+ljw8nbxZ4c3HypQ3A4jV2ZT1WH36IhnX3IJySSIvw9ybtHKn15WTcCU+ELSu0RQL4dw6mDXyiN+zRXt98ISRsJNk6i3i/+oJPXdLwrpPhsAoV7u5C9gxv5dgim8LErKV9jfF1t1nxKHpFOn6QPo25hIeTj6k1xMzdTgUZj/vqqw/TWkM7k4xNCkRH+5Ondg1K/vGy9X5pw47OHyNNtEC29av7EGgkbStunhg6/NYQ6+/hQSGQE+Xt6U4/UL6nu0jo0is9oQrg3udg7kJtvBwoOH0sr8zV6uwyfR4uf7UHuMjl1SzsiHZO6mBhB6Z+k07BuYRTi40recTNpc4FBL00R7V4wlMJ8AigsPIj8QgfSm4cMkXZ0KU2KZb4L7kydfLwoJPkF2qRPpCYwn+xIo/5BXuTfMZg6xqfS0/f7kc+UTaTPGomYrdlBT3RoR0NnvkiDu3Si0EBP8op6hP79a0M+i15rhJoufpFKPVjedwzvwPQYR58anFx+5H0a1z2AAkIjKMg7iPrN3Ei5euNYrAe1B+fRfSPn08evDqGuoWEU5OlJXSauIH26mrv+tlEc19t/+Ty6v3sEhbT3pNCHPqSff1lNTyREUic/N/KKfoK+0QvEsCG/u6XRkVqpemeMEDtJvV+kH/QJJhkXYnVA2h6M8iP0/rjuFBAQShFB3hTUbyZtrNNNLNbE9gsyJvWmF3UCM1oQ583PV4bUvEYY1zBLMlldR8vWUWp0P5qz3yAPoyYrnZJ6PENblE3mtFB79r4cT4nzMtnoemoPzqfE+Jdpj3BxjUQN1eWpN03eWCdbMo1IX07z7u9OESHtyTP0Ifrw519o9RMJFNnJj9y8oumJbxry1FIOjkj/hNKHdaOwEB9y9Y6jmZsLSMN0+WyC6fqlsbomNEF9gd7u60w9F+TQHcOuBkzrx6pj/zZTg6taVL+l4tB8bRfPJ8mYboyR76xbfwTMyiNZy22Jn7qYZf3N3D7UsUMH6qB7BFOXJzOEC6yWs2bvyxSfOI8aWqaDND8xnl7WBbVEfOnPboRxLon3IMK5IuuNxf5UKhc0VLR7AQ0N86GAsHAKYnV34JsHKddsvySUJfH12bzvpDFttgWnBcnJOSqV1l1hCty5RMuH+1C7v35KhUyAyj3PUaRnb5p7sFRnzOrTS+h+n/Y0ctV14WLa8UQQObUNoQfePUiXL1+gfKVu1HqUO5+kTp796e2TLCjUhfT9i3HkZt/eUKwqac9zkeTZey4dLNWNTqeX3E8+7UfSquusEdo/kzr7jqE1N4RjlXTtQi77fxMsyE/VGTTVL4hStwnzCdTQ9ulB9Y1L5d6ZFOk3hBafEkZWU/5XEykkcDKtLxVOFcZ2orYhD9C7By/T5Qv5VFFdRKvHeFFw6mYqKr9F1cwXtSc305rMfF1AUe1Zeqe/G3V96bCwQftndibfMWtIr8I1upBrooEFGwk27kDekzcyeUXGU1dT0eox5BWcSpuLyumWIJTRdYIqT1BQG29KTNtFCna48sdXKca5B6WfYGXS3PW1J2nzmkzK1ytFZ9/pT25dX6LDzMRW+cWIGtr1VAi16f06ndHHrgniNrRkn1o6uXkNZeoFZZe+Q/3dutJLgqBGqKm6aDWN8Qqm1M1FVH6rWle0dHZxakshD7xLBy9fpgv5NyRjUh8Tbcg7MY126Q1Jr8Y4U4/0E7oF59bWVArxHkyLTwuyaaj05/W09SSTpXIPPRfpSb3nHiT9sKdpyf0+1H7kKhKGNUK5k57s5En93z7JZldT4fcvUpybPbW3OmbtySlqBltEmER3LtLHD3hTu4c+IwWbR/LaxtTup5mdfWnMmhu6vK+8doF0oVu5l2ZG+tGQxad0Plfnf0UTQwJpsn5yi/VAZ2+5M0WlriN9ui6n4T7t6K+fFgpHzVxvHMf19k+aS3tZ/GkKPqdRrOlq330CK8BMopqTtLC3C0W9/COLDGtsZZzfNyTrnTGCLh28J5N+zZWKC/E6IG2PSto7M5L8hiwmvfj59NXEEAqcvJ4E8cViTTQGBRnrF2jp2iutT0vy1cK8Roj4XkQmq+uo5hp9ONidQmbsNNStGtrz/8LJa8RKtmYYzyk9ZjVlTPWjoNRtevkYNdunU5DPFNKXJvEaauwLfdy38U6iuXtZvmkK6PNRrIlp350mrDjNZKyhkwt7k0vUy/SjPqgt5mAb70RK26VgEV9JP74aQ8490klf6k3XL6trQlN0zXZb6jzlI8r49lv69tsttO3QZb0tzNYPczW4ZfVbKg7N1XapfJIaywgj31krvzl5lNK2tyl+GuVJrZLKy8qoLH8zPRHhTUM+vKi73lo5qzOmkl9QKjW0TNtpelDDC0yp+DLGWC6d/mI9iNh6o8t5if5OKhdubaXUEG8avPi0bn5N6c+0futJqjXX71hYn835zhLmbyOxc8OI9EUY08kRcAjD+AmJUGf9gMOqWmR9kwFF4lOYleCluwfFKSoVTw1zwL6te/TXMhyT0rBsVgJCQyMQ5GLYqUOF49t/QEnCVDwe7QTY+2PwwnSM8TWIUZuFbzIUSHxqFhK8dKMjKvUpDHPYh617bkPm4Qn36lPYtf0UyrXOCI4IgbP+SmNE5TccF6UWRzdswY244Uh2yMO5cxeh7JaAmKrD2JdT9ydDRySlLWP6h4K98oS7kyuc5HawkzvDw8MNTvbsjOiRmJQYBHtlEXLzNPAPdkdxQSG7VgYPT3dUn9qF7afKoXUORkRIUw0s2MgIkfHsneDqJIednRzOHh5wE4Qyg53bUMxaMAh+7LBzj0FI8L2GCxeZkcxd7xiNkZMSEWSvRFFuHjT+wXAvLkChlklhrV/q0aCs/Bbg0Q7t7Ay7miBuQ0v2cUT0yElIDLKHsigXeRp/BLsXo0AQ1Ah7OLk6QW5nB7mzBzzcnNgeA45JSFvGYjA0FBHe2ZIxqYPF29BZCzBIb0gMSvDFtQsXmaS1OJixE7fum4ZpUUxW5i+v2IcxPNqRhfo3yFAk4imWJ/pho5D61DA47NuKumHrUB3fjh9KEjD18Wg2uz38By9E+hhfwz1gVsSsnQdGpr+HUSEOLB/CMXFiEtQH9flsOd4NyDzg6V6NU7u241S5Fs7BERBCrfboBmy5EYfhyQ7IO3cOF5XdkBBThcP7cupvdxGvB3rs3EYgfdEY6NN1PCYkqpH1w2HDUcvX6+z//Dwk+8gg87sPSV21CBn9KrM5E7BNJPrG+eD65StQ25zf3si2ot6JIhoX0nVA1B61R7Fhyw3EDU+GQ945nLuoRLeEGFQd3oecWrFYI9EYNMJC7dUhqg+zWnPz1Zp5pRCVyYY6KgvCqHFJuLV9HfZVsu2aLKzfVoEB40fC3+h0W2qzGSRqqCl2cBv6POYl+0Am88N9SV2hDRmNV6dFsdraBpF94+Bz/TKuqK3JQWGsWVgwyI9VD2f0GJQA32sXoC/1TdcvG2qCWbQoyf4Wq//zH/yHPVZvOYESQT+z9cNcDW5Z/RaPQwNGtf20RD5ZMZZZrJXfQGN5ghykbW9T/DTC0YXVGyec+/g1bPR9Ae9ODxd22ianJOLxZQnRHkRkvTFcJNrfSeXCrYMZ2HnrPkxjOaSrhF6xeHh4NBzN9DtWrc9GvjO3MBkjUiVkkDvKDc/ZPD4+cK8sQ1mtCtcLSuAeGAhXwzGmLQIC2kNdUmzYtoOjjz/YumcGNYqKbsLVzx9uhj2wc4B93bmq6ygocUdgYMPocAhAQHs1SorL4RAzGyveTcDZOX0RGvUg5m6+oiv0pojJb9ghigYKRTGqjizB1PHjMV54TFmBvPBodPIQUplh5wgff1YA9Vtm0V7fhjlDIxEY3gfDRk/Ewu9vQktCEDsgZvYKvJtwFnP6hiLqwbnYfKWpBhZsZIQ140lT3+uyQHOUa6E2c4uTDu11bJszFJGB4egzbDQmLvweN7Wku4/Jer/UYQ83NxacZSUoEflMibgNLdlHi+vb5mBoZCDC+wzD6IkL8f1NLXSXWomdow/86wLYQkzW02BIXexpdYZUMVnL4MlkFZK7MarrBShxD4TxsAFory5BMSsujVEXFeGmqx/8GxSGQ73CVsSsLh9Yo21Anw+lKK215loDDjGYveJdJJydg76hUXhw7mYIoaZRKFBcdQRLphquHz8FK/LCEd3JQ7f4CbKK1wMDMiH2DM+ZpXx83FFZVmbYtuJ6gXr7O7KxWPPQyB+Ogj80gj9szW9r6p0FzMaFhbwVs4dGAUVxFY4smWqw9XhMWZGH8OhO8LAXizXxGDSiRXHegny1dl4pzMpkSx2Vwe+v4zCgaic2sm675uB67KgahPHDfQzH67BlTDNI1FDz1Cumi2G7hqBmYeoIuVbDItqaHBRodK1cuFatu9YUG2qCWezRafT/4et167Bu3Vp89eZoBAn2EakfprSsfovHoR6j2i6ZT5bHMo9t8hvJY8n2NsdPA6pfFmP2MsKM92ZB/zq75eukMdbGlykN6duoB5GMF/H+TioXNGwdLfNk66hkIdRjzfps7DvLiJ/ZqAlSlZVC6doO7drI4e7eFsrSskbNlBbFN8vh6O1n2JbCHi6uzmzhKK1/1wvCrSyGp5C7w72tEqVljbJQW4yb5Y7w9vNkG26InbEShy+dxtqJ1Vg17TmsVohEh1n5hS0Z7O3u4M4d3SEGC1Ymgx4Z3Nire5eBb+JQdjayDY8TxzIwO7ahWTFGMGFDoLHXVtjzxrP4SDUD+3Kv4EzOUSwbG9hgaLdYzFh5GJdOr8XE6lWY9txqw4E6LNioKSLjNZXKVky02vMGnv1IhRn7cnHlTA6OLhuLwAalrPeLDjl63BsDx19/wPdmv3ZMyoYW7FO7B288+xFUM/Yh98oZ5BxdhrENghpjjZEsxqQUcvaiwgm3y8tNCo/c3R1tlaUwHvYmyh294edpLK+9iyucWTEpbVBYUNmAlTFrlA9lhnywLd7dYmdg5eFLOL12IqpXTcNzqxWQuXnAzWUg3jzUcH32iWPImB3LWkrraRBPhbJSJVzbtTNstya25ndL650EFuqAWXvI3ODBXqQOfPNQg62zT+BYxmzEOojFmngMGtGiOG9BvrZoXilsq6MynwcxbpAKO9dvx3frd0B1/wQM8zIcrMfymDJ7O7a21C8urHlpOC5dQ5tPy3KwaRFszhpoHebqh8n0LarfFtbepkjmk41j1WGL/CZI277Z8aO5iBUv/gvFE/6JV/oYOk2b7GwPOxbTDS0Ta8rFEqkVMRsvdTSav3F/J5ULbd3c4HS7HOVmCqGgeeNQsmV9thbzV1E5dnywCEeFt8vZq6mNazMhSxiIvuzVdN+BCZBlfo21V/USa/I24POdaqSMStFtSyNHz749IftxC7bpmjEljn/wL2TUNWaOfTEwQYbMr9dCP7wGeRs+x051CkaluKHm/E/ILmYHnDohZXwKOt65jQpzXxMnKj/bdghGsL8Sp7PP6xZQ5U+L8N6mG4ZXh464N7kPHA58jXWNmkBVRTmqDM/N0da5DZQlNw0LsgblZbcg9wtGIItrbekR7D5WYhi/Bud/yoZehRSMT+mIO7crdEcasGAjIyTGa+uMNsoS3GwULDbR5HpNeRluyf0QrFcKR3Yf0/95kCHmF23eFix8dgE2XmmwpR4Z/Mc8jXE+WXhr+j+w86pgXS2Ul77Dv2a8jK+L7kjY0IJ9NOUouyWHX3AgnNgVpUd241idoCa0hXMbJUqkjGQhJqVxRO/+vaHZvx5bDPJVZK/Bl1lKNuxAJMgy8fXaq/omSJOHDZ/vhDplFJoOK+/ZFz1lP2LLNoXOBsrjH+BfGfrnVsWskA9L6/KhABnrMmFvyGer473mPH7KLmayOqFTynikdLyD28zJjvcmo4/DAXy9Llevh4CqAuVSCdMEKt+BDxYdhT5dN2JtpgwJA/vqD7YqtuZ3S+udGNJ1QNQejvciuY8DDny9rtF3eatQoTO2WKypRGPQiBbFuVTNa1nNbz621FEBLwwbPxTarelI20J4YMLghnev67E0pgOCg/2hPJ2N8/rFBYve24QbhsNSNbQltDQHjdcvCzmizcOWhc9iwcYrDXNZg0j9MKnBmpbUb6k4NINkPtk4Vh02yd8Uads3L360uP7lK3jz3DC8tSAFHoa9tsjpEBwMf+VpZOuDGj8teg+b6oL6biEaLwyJ/k4qFxx790dvzX6s32JYOyuysebLLKYRo0m/Y8v6bC3mm207F4S57MWjcb3R/94+eD4nEW+9MRF+MhkCpryDRUMv4uX47kga2B/3xL+CvDHLsXiiv+5SudwRbRr9ydoY1mRNXIC53Q7imfh4DOgTjxnH+2F0L2c4CJfIAjDlnUUYevFlxHdPwsD+9yD+lTyMWb4YE/1lqD67CuNjurIFcADiBi1G9ZTnMSHEjAqi8rNjDtF49PkRKHl3EGIT4tH3mTPoPzYWznoB4DvhHbz/wGW8FBeFfoOHIqVPF0Qk/h2HdG9lyCF3bANj9RzR58Fh8NzxApLuS8K0VSVImT4dId89g/h+CeiZlA5Fx85oqxu/GmdXjUdMV7bADIjDoMXVmPL8BP0w9ViwEaPBxuLjOfZ5EMM8d+CFpPuQNG0V8lh0GflGLodjG8dG73w4sF1MPwe9PZteX5IyHdNDvmMy9UNCzySkKzqic1sH3fViflHnZ+Gb1V/hQK6ZrxXyGoH3vnkXyYr3MSLcE67sFX27rhPxaUVH/MXDFYNEbWjBPs6DMH16CL57Jh79EnoiKV2Bjp3b1tvOCMc+eHCYJ3a8kIT7kqZhld5IxnaxEJPmYsJBsKPcgUkqQ/Cjb+MfPQ/hqbheGJDSC7GjV+EKyyNZwBS8s2goLr4cj+5JA9H/nni8kjcGyxdPbHKfKBPBfyIWzO2Gg0yn+AF9ED/jOPqN7mV1zDq07YIBEXsxpee9uO/eePztRF+8Ychn6WsbUX0Wq8bHoCsrQgPiBmFx9RQ8PyEEMt8JeOf9B3D5pThE9RuMoSl90CUiEX83DCBdD/TYuYTBZe+jiGPF8N4+zyMn8S28MVH/zrG56433NbW/PTsu7HOof6fCwVHvD2tsZTyW5XpnhFHsNB2rcVxI1wFRe8h8MeGd9/HA5ZcQF9UPg4emoE+XCCT+/RBqRWONNYAiMWgkY4vi3Ln5+WpxXmOkfW+ce9bXUT0eQydhpOslXHYdjcnJDffQN5xnaUwHRD/6PEaUvItBsQmI7/sMzvQfi1hnfZ10HiReQ3W6sHnqxGkqm71OLxZbDUHNtllus6c256CDMBa7VmfepuvXdXhL5Yg6H1nfrMZXB3JhUtXt2sDN1Q6//LM/fNu1Qzvh0T4Yk78qF60fJjW4JKUF9dtJIg4ZTGfj2i6VT1Ix3ZRGvrNl/WkqD4svqfrUvPipxP6MXShSbML0v3gzn7SHX/83bJLTIfpRPD+iBO8OikVCfF88c6Y/xsaK55FxfBljdK6J/o16ELF4EZDo76RyQRb8KN7+R08ceioOvQakoFfsaKy6IlQK037nup+F9dlEdsvYCZ+SNDzXU7sTMyKmoGpJLpbHnUd2vhzhsd2a3OeiQcXVkzh1rQYenWPQPaChMFmF9jZyc06iwDEcPbv5o9G3cOrRVODqyVO4VuOBzjHd0Xh4VQmT6UwRZEHRiA3zZEtrE6ySX4vKvF+QIxzrFQW/Jp8VEo4r807h5JUK2HuHo3uXQLiYCZwGtKi4chwnC9qwue5BIJNXXXoZOedK4Nm1F8KN/uygQsn5bJwpkiEoOhZhniL3wVmyUT3i42krruD4yQK0CY/FPYJQNmJyvboUl3POocSzK3qxBtlIK0t+EaUSBadO4mIJ0P4vsejWyFHiNmRI2keN0ss5OFfiia69wiH5Vx9tBa4cZ+O0CUfsPYGsxIogEZOWqYHi9AlcqHBHRM9uCGgUi5qKqzh56hpqPDojpnuA+Pwsxm7n5rAYc0Q4G8PfJCAsxSw7fi0HOdflCItl8jfJB6viXVWC89lnUCQLQnRsGBqHrlaZh1Mnr6DC3hvh3bsgUDph6qndOQMRU6qwJHc54lgc58uZH5g/jcRrdWzN7xbWO7OYz1ur7KFVIo/lzJUKe3iHd0eXQJdGuSgWa+IxaEQL4rz5+cpoUX5JYHUdtQELY2or8/BLTj7k4b0Q1XRxkaihLaW5OciuNFm/hH225YgViNUPkxrcsvotGYfmkMgnm8fSYYP8ZpGwfavGjy12rkTeLzm6etQryo+9RPsNMBcvVvV3gkvFc6FGcRonLlTAPaInujUqhOb6JevXZ8tINNt5+GKUWEX+HfNHl5/D+R+ivrnM+wI8Xbk9OBwOR5Q/cH9n+lrG3gdd+yWhu5k/4f0h+KPLz+H8D2Hv0xX9krqb3Drzvwq3B4fD4YjwB+7vTN/Z5nA4HA6Hw+FwOK0Cf/+Ew+FwOBwOh8O5S/Bmm8PhcDgcDofDuUvwZpvD4XA4HA6Hw7lL8Gabw+FwOBwOh8O5S/x+m23NdWSuWY19jX5JyTwqHH5tABLS9uq2NNczsWb1vka/CNVCVIewICUJc/frfyCg2agO47UB/ZC21/ZxVIdfw4CENJi/VIPrmWuwel+jX0xqLVpL95ZgdRxwOBwOh8Ph/P74/TbbVVlYNns2lmaWG3aIQagouIjz+frzqrKWYfbspbB4mbVQBQrOn0NeWQu/tEUY5+IF5JfbPg5VFODi+XyYv7QKWctmY/bSTLSWyvW0lu4tweo4+K1R4ch7kzF9+SnTX1Lj6FEdwXuTp2P5KW4hDofD4fzvItFsq1BRVIjiStN3FFUVChSW1sDsr+NrKlGsKEWNuYOqChQVFsPMkIC2BmUKBcoNv00Pt3FYo7iB9Y+0N+xgCOcUFuCGUnzxdhu3Boob69H4MvNoUVNWiIIbSrPNklpZDEWZ+Du6msoSFCrKzOtpCfVt3CgqZxZuirRMAhomV1FZY9u7YdwaBW6sfwRGKkvZWkCtRLFZGe6y7k2RkEOHuTjQoYayuKghXhrxm8Qnmz/v+E7sylaY+YuCBpUlhcyGIjKwa28Xl6BSyn5ScrJjJYUKlIk5gMVXcUmlyNwGpMa3gKqiCIXFlSJ/SWmkmzoPx3fuQraiyZlW5DGHw+FwOH8ahO/Zbkr5kfdpXPcACgiNoCDvIOo3cyPlqtkB9UX6IrUHBfh2pPAOfhQ67lPK1bD9tQdp3n0jaf7Hr9KQrqEUFuRJnl0m0orTtbrx2Ih05P1x1D0ggEIjgsg7qB/N3JhLwpBEGiravYCGhvlQQFg4BfmF0sA3D1FNbRbNT+pNL/5Qw86pocNvDaHOPj4UEhlB/p7e1CP1S7qsG6CGdjzRgbwnbxQ2qDZrPiX1fpGEy2oPzqU+HTtQhw76R3CXJymjkl1x+C0a0tmHfEIiKcLfk7x7pNKX+sGYOArakdafgrz8qWNwR4pPfZru9/OhKZuq9cfLj9LSSbHMBsHUuZMPeYUk0wubrhp0kaBmBz3RoR0NfvZ5GtgllEJ8XMk7biZtLhAMKC1TzY4nqEO7oTTzxcHUpVMoBXp6UdQj/6Zfdeatpaz5SdT7xR+YJQQkbC3YNHkEpX+STsO6hZnI0Hq619Del+MpcV4mk05P7cH5lBj/Mu0RhLQkR2OM4kDQNZlGpH9C6cO6UViID7l6x9HMzQUsihi/VXy+vpVWTAgnbxd7cnDzpQ7B4TR2Zb5OhvKjS2lSbAD5BnemTj5eFJL8Am26qh9JiM3k4fNo8bM9yF0mp25pR3T767FCzqNLJ1FsgC8Fd+5EPl4hlPzCJtIPr7fN8HmL6dke7iSTd6O0I3XXGbAwfs3elyk+cR5lNjiN5ifG08s6pzHKj9D747pTQEAoRQR5U1C/mbRRVxhMdYt6Lp0mhHuTi70Dufmy3AsfSyvzqyTymMPhcDicPyemzXblXpoZ6UdDFp8i1peSOv8rmhgSSJPXl1Lt/pnU2XcMrbkhtBWVdO1Cru4cXSMZJCfnqFRad4Wt1Hcu0fLhPtTur59SITu1cu9MivQbQotP6Uak/K8mUkjgZGJDEt3aSqkh3jR48WkSWjpN6c+0futJqtU1p940eaOwt5ZObl5Dmfn6Rb/27DvU360rvXRY6AqMm21dY+o9mXSXseuU5WVUVpZPm5+IIO8hH9JFtrDXntxMazLz9c1p7Vl6p78bdX3psLBFyp1PUifP/vT2STaAupC+fzGO3OzbGxrOStrzXCR59p5LB0sFG1TT6SX3k0/7kbTqurAtgc5GDuTZJ412KZgQlT/SqzHO1CP9BN1hh6VkEnQKsneiqBnsRQ87+c7Fj+kB73b00GcK4Wi9/joJpWytk6ENeSeal6H1dK+mjKl+FJS6TSeTQM326RTkM4V0Q1mQwwijOBB0DaI23omUtkvBtKukH1+NIece6XSCXfhbxmdVdRGtHuNFwambqaj8FlULDWPlHnou0pN6zz1IehOdpiX3+1D7katIMJHOj05tKeSBd+ng5ct0IV/JTmqEJTn3PEeRnr1p7sFSXWNffXoJ3e/Tnkauui5crLONU9sQeuDdg3T58gVqOryl8aszppJfUCpta3AaTQ+qe7FVSXtnRpLfkMWkN1M+fTUxhAInryd9aDXVrYKqi1bTGK9gSt1cROW3qpllpfKYw+FwOJw/Jya3kdQe3YAtN+IwPNkBeefO4aKyGxJiqnB4Xw7ueHjCvfoUdm0/hXKtM4IjQuBsuA52bhiRvghjOjkCDmEYPyER6qwfcFhVi6MbtuBG3HAkO+Th3LmLUHZLQEzVYezLqUXtwQzsvHUfpk2LgvBL9zKvWDw8PBpslEY4InrkJCQG2UNZlIs8jT+C3YtRUGjpb+COcGEyO537GK9t9MUL705HuD3bGz0SkxKDYK8sQm6eBv7B7iguKGTnq3B8+w8oSZiKx6OZNPb+GLwwHWN8DWaqzcI3GQokPjULCV7CPidEpT6FYQ77sHXPbf05Uth5YvhLCzDIjwnh3AODEnxx7cJF3S0U4jLpsfMYifT3RiHEgZk3fCImJqlx8IfDhqN1SNtaB/PT0FnmZLjLujdFVA5L2MFt6CwsGOQHexZ9PQYlwPfaBVxkF8p+w/hs6+QKJ7kd7OTO8PBwgxNTozbrG2QoEvHUrAToTRSF1KeGwWHfVtSbyDEJacuYDUNDERHkYtjZCAk5s77JgCLxKcxK8NLd/+UUlYqnhjlg39Y9+msZjklpWMbmDw2NgLnhxcc3HBej9ig2bLmBuOHJcMg7h3MXleiWEIOqw/tQF1rGurnDydUJcjs7yJ094OHmxPzV3DzmcDgcDuePi6GTakCjUKC46giWTB2P8eOFxxSsyAtHdCcPtImZjRXvJuDsnL4IjXoQczdfadQcySB3lBues0bAxwfulWUoq9VAoShG1ZElmKobjz2mrEBeeDQ6edhDVVSEMk8/+AudjChaXN82B0MjAxHeZxhGT1yI729qQdas0apfsHj2MtCM9zArWt/Ca69vw5yhkQgM74Nhoydi4fc3odUNpkZR0U24+vnDTXcmw84B9nVWUl1HQYk7AgNdDTsYDgEIaK9GSbGVH+CzM/zLngj20qr197OKy2RAJocja7T1OMHHxx2VpaWG7TqkbV2PWRl+A92bImILy9RfyJpdR8i1at39ww7/tfjUo7pegBL3QBibKADt1SUoLtf70s7RB/4+JmnXCDE5VbheUAL3wEA0DO+AgID2UJcUG7bt4OjjD8nhRcc37BBDo4CiuApHlkw11IXxmLIiD+HRnVAXWpZ1a0EeczgcDofzB8VkZZS5ecDNZSDePJSN7GzD48QxZMyOZUu7G2JnrMThS6exdmI1Vk17DqsVjVbKRl9aoSorhdK1Hdq1kcHNww0uA9/Eobrx2OPEsQzMjnWA3M0NTrfLUS7VZ9XuwRvPfgTVjH3IvXIGOUeXYWygZEdhQIOLK17Ev4on4J+v9NG9Mym8+7vnjWfxkWoG9uVewZmco1g2NtBgCHu4uDqjksle33sIt9oYnkLuDve2SpSWNXobUFuMm+WO8PbzNOxoDlIyNdBgXhXKypRwbdfOsF2HtK2laV3dZfZ2uHPnjmGLDaVtNNZd47eMT8E7DU2/gNzdHW2VpTA20U2UO3rDz9OaeDVgVk453N3bQlla1ugFhBbFN8vh6O1n2LYSs+OzDZk97JjP6r3GumAWAnpkbvBwc8HANw/V2yg7+wSOZcyGaGg1NVGz85jD4XA4nD8uJiud473J6ONwAF+va/S9zaoKlFcBNed/QnYx2+vUCSnjU9Dxzm1U1BjOoXLs+GARjgp/Ltdex8a1mZAlDERfR0fcm9wHDge+xrpG35WsqigHGxKOvfujt2Y/1m9R6L89oSIba77MglJ4XoemHGW35PALDmQNsxalR3bjWInlt8O017/EK2+ew7C3FiDFw7CTaVVedgtyv2AEsu5bW3oEu4+V6OeGHD379oTsxy3YpmvSlDj+wb+QUdewOfbFwAQZMr9ei6s6VTTI2/A5dqpTMCpFeD+4Bkc//hte/NzWr4OTkkkPle/A0kVHoTNvQQbWZdojYWBf/cF6pG0tTUt1b4wDgoP9oTydjfNCZ6j8CYve24QbjRW6C/zW8dnWuQ2UJTfrm1/HvgORIMvE12uv6nNHk4cNn++EOmUUTEwkhoScfQcmQJb5NdbqHcCG34DPd6qRMipFt20VouMzrwUHw195Gtl6p+GnRe9hU53THO9Fch8HHPh6XaPvsFehQigMorSFcxslSm4aLKSRymMt8rYsxLMLNuJKgxs4HA6Hw/nDY9Jsy3wn4J33H8Dll+IQ1W8whqb0QZeIRPz9UC2qz67C+JiubNEfgLhBi1E95XlMCDEMYeeCMJe9eDSuN/rf2wfP5yTirTcmwk8mg++Ed/D+A5fxUlwU+g0eipQ+XRCR+HewISELfhRv/6MnDj0Vh14DUtArdjRWXZExweSQO7bR3zrhPAjTp4fgu2fi0S+hJ5LSFejYuS0cDO+oyeVyONbdYyE8b+PI2j2gcn8GdhUpsGn6X+Ddrh3a+/XHGycdMWj6dIR89wzi+yWgZ1I6FB07o61uMBn8Jy7A3G4H8Ux8PAb0iceM4/0wupezfi5ZAKa8swhDL76M+O5JGNj/HsS/kocxyxdjoj+zg7YMP21YgTUHcs0020wfuUEfAw5MVrncgc3qLCETg53TtssAROydgp733od74/+GE33fwBsT9e9oyuWOaKMbWNrWOhnqbGqgQYYW6m6EA6IffR4jSt7FoNgExPd9Bmf6j0Wss4POL9JyNMX43AZdDTgI18nhwC78bePTEX0eHAbPHS8g6b4kTFuVBwRMwTuLhuLiy/HonjQQ/e+Jxyt5Y7B88UToTNQoNkWRkDNgyjtYNPQiXo7vjqSB/XFP/CvIG7Mciyf66y41sY05RMdnpox+FM+PKMG7g2KREN8Xz5zpj7Gxdf73xYR33scDl19CXFQ/DB6agj5dIpD490P6v4SY082xDx4c5okdLyThvqRpWFWSIpHHauRnfYPVXx1ALv9GQA6Hw+H8ibATPiVpeG6EVpmHUyevoMLeG+HduyDQRd+0qErOI/tMEWRB0YgN84Tuds3anZgRMQVVS3KxPI4dz5cjPLZbk/tctVDmncLJKxWw9w5H9y6BMAypo0ZxGicuVMA9oie6BZi7QVaN0ss5OFfiia69wmHLX+XNoS69jJxzJfDs2gvhTQfT3kZuzkkUOIajZzd/CH9hN0JTgasnT+FajQc6x3RHgOFTeNrrqzCq90eI3pCF1/uY00EaSZkEtEpcy8nBdXkYYrsHGG6LMYe0rSVppu7m0Fbm4ZecfMjDeyHKT3+//N3mt41PLSquHMfJgjZsvHsQaLCFpuIqTp66hhqPzohhfpIwkTFWyalBxdWTOHWtBh6dY9BdygFNsWZ8bSXyfslBvjwcvaL82EuKJrAYzDt1Elcq7OEd3h1dAl3MvEBqhLYCV46zeGoTjth7ApktWjePORwOh8P5vSPabNtE/SKehy9GibeAf25UODInEX+TvY89r/eFuS+C4PyX+KPE592Wk+cph8PhcDi/Oa3zvpK9D7r2S0J3k9sJ/pdwROzcvcjkjfbvjz9KfN5tOXmecjgcDofzm9M672xzOBwOh8PhcDgcE/hbXBwOh8PhcDgczl2CN9scDofD4XA4HM5dgjfbHA6Hw+FwOBzOXYI32xwOh8PhcDgczl2CN9scDofD4XA4HM5dgjfbHA6Hw+FwOBzOXYI32xwOh8PhcDgczl2CN9scDofD4XA4HM5dgjfbHA6Hw+FwOBzOXYI32xwOh8PhcDgczl2CN9scDofD4XA4HM5dgjfbnD80KmU5KtWGDQ6Hw+FwOJzfGWaabS0qrp1FbrnGsP17RoXDrw1AQtpewzbnD4/qMF4bkIC0vbWGHeKoz/wLQ7sMw79yLJ+rQ3MdmWtWY1/uHyG27zKqQ1iQkoS5+6203R8I1aEFSEmaC8uq/RnqhwqHFqQgae5+/Fc8qczD6ePHcezYMcPjOH65dttwkMOxAhtq/v8q1te0Px5VBWdw/PgxHD+Rg1+vlbOK9jujldZK02ZbcxnLJ/bC6MVn8Pt/w5BQUXAR5/PLDdutg+rIe5g8fTlO8XdMf3uoAgUXzyO/nAw7RNBcxadpn6Dtq5/i1V5tDDstUJWFZbNnY2lm68ZLq6I6gvcmT8fyux18gp3Pn0NemQU733VUOPLeZExffqrV6g1VFOD8uTxYVu3u1I/fFkGH8ziXV8ae/dZocHnZJPQa8DCenDkTMw2PF1cd+80a/99PrW79OP69cddsbW3Nt5o/ny+sr2l/MDRX8PGEnhjw8JN47plUjOrdESFxqfj36RrDCb8DWmmtNHsbCenGbObAqgoUFRaj0tybh+rbKC5Wmk8ATSVKChUoq9EadrQAqbGYfIrCUkhNo847jp27sqEQ06GkEg2Xa1BZUghFWU2jfU1QK1FcZP4Vm7amDAqFmWMt1KEBJl+xAqVmThbmLiy4AaUZh6gqFCgsNdVJ6hodEro2xeJYUti5Y8DC7fjq6S5wMOwyRg1lcRHKGwviNg5rFDew/pH2hh0CWtSUKaAwOlGPprIEhYoy6+ws4RNVRREKiyuZJ0wx8b86D8d37kK2meCzKI9JbJqiVhazWBVvhaRkNUFbgzKFwtjGOizlhBq3i0tQqTuoRt7xndiVrTCdU6qWmCD4m+WLqGoqVBQVoti6wYxoTp5Ykl19uxglegPU03SfZH4IecZiQVxdG+dvZv3VajSw7zwNn+7PQlaW8DiI7/4+AE1f/gpxV2Qmx8wiIXtTe0vVamtjuVk+NIl9iTi2KR9MaW6MNdD8Gtc4TsRs3ZprQmOkZBO1iQ4pXxjrpMfyGi4ev82zrbT8dbRWTRNkLETBDZHey0akctmmNVOHBmq1PTpP+xQHDh/D2auH8YrXJsya9W9cazSGLXFqioiPhBwuLMANkcCVXCstXGsWaor6Ar3d15l6LsihO4ZdOmr20svxiTQvs9awo5YOzk+k+Jf3UI1uu5yOvD+OugcEUGhEEHkH9aOZG3NJbTh26P+GU4SPP3UM9iffwA7UITiMRn18hR0vp6NLJ1FsgC8Fd+5EPl4hlPzCJrqqv9ACNbTjiQ7kPXmjYVtqLDVd/CKVerBjHcM7kF/oOPo0V6O7qgENKT6bQOHeLmTv4Ea+HYIpfOxKytfUUtb8ZBo+bzE928OdZPJulHaklsqPLqVJsQHkG9yZOvl4UUjyC7SpTvDaLJqfPILSP0mnYd3CKMTHlbzjZtLmAsOcmiLavWAohfkEUFh4EJNnIL15SLBkS3UQYL6Zdx+NnP8xvTqkK4WGBZGnZxeauOI0O8KoOUxvDelMPj4hFBnhT57ePSj1y8t6X6kv0hepPSjAtyOFd/Cj0HGfkm4KqWss6doUqbFqdtATHbxp8sZq3alNqdn7MsUnzqOGMDxI8xPj6eU9gu30fhqR/gmlD+tGYSE+5OodRzM3FzDPCoeZnEm96cUf9BGrKdpNC4aGkU9AGIUHMV0Hvkl6FxylpZNimQ2CqXMnH/IKSaYXNl3Vy2eChE/Kj9D747pTQEAoRQR5U1C/mbQx1zCKGf+/vnUFTQj3Jhd7B3Lz7UDB4WNpZT4bS1Ie87FpgkZBO9L6U5CXkIMdKT71abrfz4embDLYWUpWEzRUtHsBDQ3zoYCwcAryC6WBbx7S1QGpnKjNmk/Jw+fR4md7kLtMTt1e2U6fTQgnbxd7cnDzZTUhnMauzGejS9USUzSKHZTWP4i8/DtScMd4Sn36fvLzmUINqr1P47oHUEBoBAV5B1G/mRtJr1rT+tGE5uSJlOy6PBlO8xY/Sz3cZSTvlkZHbpvZd0tiXqFG7Uij/kFe5N8xmDrGp9LT9/uRz5RNpFfXxvlrW1J/1XTh7b7k3HMB5RgtFnp0/h6RTp+kD6NuYSHk4+pNcTM3k1hZkJTdxN6r6Ni/zdVqYRgrY7k5PjQX+69vpRVm45iNZEs+pB3R7a+nWfIZ06waZxInr9D2lWZsXdVKa0LTmi8lm6hNDLA6Z7ammI19K/wjEb/Nsq0l+Q00v6YZU3P4LRrS2Yd8QiIpwt+TvHuk0peXzZ0o3d9ZzGWb1sxGmPSbGrq2eAA5dZhBO22OU71PG2PeRzV0+K0h1NnHh0IiI8jf05t6pH5J9WaRXCstXCuB9c12dQZN9Qui1G0Gb7NJt08Pqi/ylXtnUqTfEFp8qpJtqSn/q4kUEjiZ1pcKQ75LSR69KP0YO1Nzk7ZOj6AOU9fTTTZB5Z7nKNKzN809WKorTtWnl9D9Pu1p5KrrwiQWMF4sJceq3U8zO/vSmDU3dMcqr12gXEHUpqirqWj1GPIKTqXNReV0q1qwojBPEDm1DaEH3j1Ily9foPwbe+i5SE/qPfcgleonoyX3+1D7kavourAtFJCgNuSdmEa7FGyMyh/p1Rhn6pF+QmfXW1tTKcR7MC0+LVhPQ6U/r6etJ2tbRweDvHLnKEpdd4WlzR26tHw4+bT7K31ayK6sPUmb12RSvhDM7OjZd/qTW9eX6DAL1Nr9M6mz7xhac0M3A127kMv+L5wmfo0lXU2wNJZEs12dMZX8glKpIQy30/SghkQQ9G7jnUhpuxQsCivpx1djyLlHOp0QBDEa+xZtTQ0h78GLSe+CUvp5/VY6WVtJe56LJM/ec+mg3rF0esn95NN+JK3SObYJoj6ppL0zI8lvyGLSp0Q+fTUxhAInryeWEiL+r6LqotU0xiuYUjcXUfmtap0O0vKYiU0l290E5c4nqZNnf3r7JJtPXUjfvxhHbvbtDXaTltWEW1spNcSbBi8+rct9TenPtH7rSaqtlM6Jmh1PUJBTWwp54F06ePkyXWCCqquLaPUYLwpO3UxF5bdISDepWmKKknY+2Yk8+79NetW+pxfj3Mi+vWFhqtxLMyP9aMjiU7o4Vud/RRNDAmmybjDj+mFCM/JEUnZdnjhR25AH6N2Dl+nyhXxSmtsnlR/KnfRkJ0/q//ZJZns1FX7/IsW52VN7K+qwuflvtKj+6pvttp2n0EcZ39K3335LW7YdosuCIAydv9t4U2LaLtKXhVcpxrkHpeuS0RQp2c3a22yttj6Wm+VDkdivMhPHrJjbnA+NaZZ8RjSzxpmLSXO2bq01QTi3vi5Lyya6PjXCXE0xq5M1/hGN3+bZ1hr5W1bTjKk9uZnWZOazSidsnKV3+rtR15cO644ZYaG/k7aFjWtmY0z6TSX98Gw4te37Fp1VNyNOdWPUIeajWjq5eQ1l6gOXmeUd6u/WlV7SBa6ltVL6Wila6dtIanF0wxbciBuOZIc8nDt3EcpuCYipOox9ObVQ5+ei0DUG93ZzAmRe6HFPMMqv5aNSVousbzKgSHwKsxK8dPe0OEWl4qlhDti3dY9+aKuxMJbMA57u1Ti1aztOlWvhHByBEGf9lUbYO8HVSQ47OzmcPTzg5mRvOAA4JqVh2awEhIZGwDv7G2QoEvEU2/bST4bUp4bBYd9W7Kn7fJCdG4bOWoBBfmwM5x4YlOCLaxcuQsVkPZixE7fum4ZpUcwmTFqv2IcxPJpaRwcddnAbkY5FYzrBEQ4IGz8Bieos/HBYxRSJxshJiQiyV6IoNw8a/2C4FxegUCtM4Qn36lPYtf0UyrXOCI4IgW4KiWt0iOpqBktjtQim99BZWDDID/ZM8h6DEuB77QIuNhWk9iAydt7CfdOmQe8CL8Q+PBzRlIVvMhRIfGoWEvSORVTqUxjmsA9b6x3bCDGf1B7Fhi03EDc8GQ5553DuohLdEmJQdXgfcmrF/N8WTq5OkNvZQe7sAQ83J9jXWidP49gMcjHsrEeF49t/QEnCVDwezeaz98fghekY4yuMx5CUVX9KY2oPZmDnrfswbVoUk0YwXSweHh4NyrIiJxyTkLaM6RIaiggmqL2TK5zkdrCTO8PDww1O9tK1xATVcWz/oQQJUx+HXrXBWJg+Bg2qbcCWG3EYnuyAvHPncFHZDQkxVTi8L8fyfcU254k1sjsiKW0Zy+9QhEYEQe+qJvsk5lUd344fShIw9fFoZnt7+A9eiPQxvrpawbS1cX5vZLdC/dWWZOPb1f/Bf/7DHqu34ERJQyLbuQ3FrAWDoC8Lg5Dgew0XTJJRQFp2s/Y2V6ttiOXm+FAs9tuaxDETpRn50Jjmx5iBFtW4JjFpztatuSbUYaHeia5PjTCtKYYDTXRysMI/ovHbTNtaI39r1jTH6JGYlBgEe2URcvM08A92R3FBoeGobYjbwsY10wQtSk9uxqpPPsTbzz2Ex9c44fE5j6Mz61dsjlPDXh1iPnJ0RPTISUgMsoeyKBd5Gn8EuxejQBe4FtZKNp/4tdLUjdBCNFAoilF1ZAmmjh+P8cJjygrkhUejk4c92sQMQF/sxPtvfoXvtq3EgpU56JLcH4EyFa4XlMA9MBCuhpHAGsOAgPZQlxQbtq3FwlgOMZi94l0knJ2DvqFReHDuZlyRzPqm2MHRxx8+BouprhegxD0QgQ2TwSEgAO3VJShmTVc9doZ/2RO5oxxatYY9V6GoqAyefv4sfBrTujrI5I6QG57DyQc+7pUoE+5B0l7HtjlDERkYjj7DRmPiwu9xU0u6+8ccYmZjxbsJODunL0KjHsTczVf0xVHimnrM6moGa8ZqEfWCsILLbKBVm967pypCUZkn/PyNPcAci4ISdwQaOxYB7dUoKTbzQToxn2gUUBRX4ciSqfp8YI8pK/IQHt0JHvZi/jeDVfIYx6YpajbfTbiy+dwMe2DnAPu68yVlNZzTCFVREco8/WBqOss5YefoA39xQRnStcQENfPjTVfmx3rNmGr29YVNo1CguOoIlkw1jDV+ClbkhSO6kwdrVS1gc55YIbudI3z8fYwLb9N9EvOqme1vujLbNzgSDg2OtHH+1qm/9p1G4/++Xod169Zh7VdvYnSQkXaNyoIcjnItzJcFadlF61JTbIjl5vhQLPbN0dJ8aHaM1dGSGmcuTpvSmmtCHRZkszoOzNFEJ2vXcLPx20zbWiV/K9Y07fVtmDM0EoHhfTBs9EQs/P4mtGTkIZswbwsb10wTSPeNJCdyzqPUZzSWHsrC0hG+kLU0TsV8xCL0+rY5GBoZiPA+wzB64kJ8f1MLvVksrJWS10ojmUvGyGBvdwd37hg2mYG0+k9SMmRwY68gXQa+iUPZ2cg2PE4cy8DsWAeozhzCz269EFm0CR8t/wFtpn6NDa/GsrIuh7t7WyhLyxoFnBbFN8vh6O1n2LYWy2O5xc7AysOXcHrtRFSvmobnVit0+5siGKWhXTOP3N0dbZWlKGuUKdrimyh39IafpyWzyuHm5oTb5eWsdDam9XTQ0+hDrqoylCpd0a5dG9TueQPPfqTCjH25uHImB0eXjWUvfAznsRCLnbEShy+dxtqJ1Vg17TmsVmgtXGMbLRpLZg87FoQNYcgCvTmf5ZW7wc3pNsqbfsWl3B3ubZUoNXYsbpY7wtvP07DDGLM+kbnBw80FA988VJ8P2dkncCxjNmIdxPzPaBp8zZDHFHu4uDqjsqy04Z0P4RYyw1NpWQ3nNELu5gan2+UwNV1zcqKpwtK1xAR7F7g6sxeRpQ3v6VCjgJC5ecDNZSDePNQwVvaJY8iYLdQfaWzPE7bXFtlFkJrX3sUVzpUslxsc2Sj+bbRdq9bflmJJdvN1qWn02BbLtvtQLPYF+ZuuGi1bIwRaGGOtWOMEmmrYmmtCPRZlMx8Hxpj6whwt8k+zbWuF/K1W02qx541n8ZFqBvblXsGZnKNYNjZQZx1TpPo7C7R4jbJHh/tfxdIP38c76U9jRFcP/e6Wjivmo9o9eOPZj6CasQ+5V84g5+gyjK0PXAtrpeS10oicRagpvYpfT5/GafY4c74QlQ7BCPZX4nT2eV1hVv60CO9tusFKs4Aj7k3uA4cDX2Ndo+8wVlWUo0r4tyAfRVV34BY1GA+NG4VB3d2hrhLOc0TfgQmQZX6NtVf112nyNuDznWqkjErRbdcc/Rh/e/FzK75uyMJYNefxU3Yxa26c0CllPFI63sHtCpGvl2nrjDbKEtxs5OOmOPYdiARZJr5ee1XfMGnysOHznVCnjEJKwwtSERzRu39vaPavxxZDolVkr8GXWarW04H5sHzHB1h0VPhzC3s1tnEtMmUJGNjXEZryMtyS+yE4kL3i05biyO5jqPvLb835n5BdzOZ26oSU8SnoeOc2hCmkrrGVlozlEBwMf+VpZJ/XRSF+WvQeNt1ohiCOvdG/twb712+B3gUVyF7zJbJUfTEwQYbMr9dC7wIN8jZ8jp3qFIwy51gxnzjei+Q+Djjw9To0pIQKFeVCRoj5X8metYVzGyVK6oLP0UZ5zCJHz749IftxC7bp5lPi+Af/QkZdkZeU1RTH3v3RW7Mf67co9PlfkY01X2ZB1cycaOvcBsqSm4aGT7qWmCDvib49Zfhxyza9H5XH8cG/Mgw+FVRLRh+HA/h6Xa5eJgFVBURUM8L2PLFRdhGk5pX37Iuesh+xZZve9srjH+BfGQY/2Go7SzWTjZq3ZSGeXbARVxqGu0tIyy5Wl0xqtQ2x3BwfisW+LnON4pid26I1ohVirLVqXB1NbN2aa0I9FuqdaBw0oakvzNEi/zTTtlbJ32o1TYPysluQ+wVD76Ij2H2sxFArmiDZ31nA0hqlzcOWhc9iwcYrDfJaQ0vXPjEfsVwpuyWHX3AgW7W1KD2yG8fqA9fCWqmRutYCuju3G6O5Rh8OdiH2ulBo5nUPO+eH6PNbarr02Tjq5OpDUf16U/e4R2jBk/dS8GNbdDfQ052L9GVqDHl7R1LfQUNoQPxfKLj787Srhg159d/0UFAnSp76BKU+9gg9PCCSvAIfoA9/VbPrztLnU7tRO98ulJiSRFEBQdRn5ia6JnyogTRUsHQgOfk/Tlt1kzSlhnY/E0qBj32r35Qaq3QzPRkZQJ37pFByjyDyiX6KNorcvK+5mUGpYa4UENOfEh9dSdc0wjxhFMTmaRDjDp39fCp1a+dLXRJTKCkqgIL6zKRNesGZaLvpmbAgeuzbuitq6dBLUeQzab1+jOpsWvJgR/IM6kHJA3pSaOgAev1QZSvpoP/gl0fccBrcJZLuTepJHTzD6OHlhm8jKdtNL/X0pHaRfalfTBTd99hY6hU0lTKYYKWbn6TIgM7UJyWZegT5UPRTG/Uf+JS4xqKuTbE0Vmhgo7GaoL5En43rRK4+UdSvd3eKe2QBPXlvMD22RXexiZ9qD71EUT6TaH3d2I3krM5eQg929KSgHsk0oGcohQ54nfQu+JymdmtHvl0SKSUpigKC+tDMTdfI4FljJHxy5+KXlBrjTd5Mz0FDBlD8X4Kp+/O79B9WEfO/5iZlpIaRa0AM9U98lFZe01iQx1xsmqHyJ/rnoADyCImj5Pgo6jl+Pj3Ru85uFmQ1oZqylzxIHT2DqEfyAOoZGkoDXj9ElRZyomb3MxQW9BgZu1ZDNzNSKcw1gGL6J9KjK6+RRqKWmKPyp3/SoAAPColLpvionjR+/hPUO/gx0qt2hy5+mUox3t4U2XcQDRkQT38J7k7P6wZrUj+a0pw8kZLdJE8Y5vZJ5Qez8k//HEQBHiEUlxxPUT3H0/wneltVh83OJVl/WR6/0o3cOs+kvWZtr6FrHw4mF7kzeXh5kZfu0Y46TPqSythRE3/XHqKXonxoki4ZzSAhu5i9TWu1MIx1sdwsH4rGvpk4blY+NNA8+YxpVo0zFycME1uXtNKaIJzbqOZLySZqEyPM+MKsTjb6p0n8Nse21snfkppmTNnul6inZzt2Xj+KibqPHhvbi4KmZhiONka6v7NkC8l4Yue+0s2NOs/ca7qeqC/Te/3dqffrp/XnNqE5cdoY8z4qo90v9STPdix/+sVQ1H2P0dheQTRVX2AtrJUWrpXATvif0HRbhxaVeb8gJ1+O8F5R8HM07K5HC2XeKZy8UgF773B07xIIF5kKmbOiMVbxOs59NRa6PxCos5Eel4gfn7yEnU/7QcZesVRcPYlT12rg0TkG3QMMHxnQXseqUb3xUfQGZL3eh72SsAaRsQRUJTiffQZFsiBEx4bBs+kNTo3QVlzB8ZMFaBMei3sCTT7CUI+m4ipOnrqGGo/OiOkeAPEzzVEDxekTuFDhjoie3RBQr2BLdajFzhkRmFK1BLnL49j5+ZAzPbo1vndJXYrLOedQ4tkVvcI9jf7EoSo5j+wzRZAFRSM2zLPhPjCJa2ymJWNpK5H3Sw7y5eHoFeUHkzC0hRoFTp+4gAr3CPTsFtAQY5oKXD15CtdqPNA5pjsau8AEKZ9olcg7dRJXKuzhHd4dXQJdGukq4n9tBa4cP4mCNuGIvSdQH1O2yCOG9jZyc9i4juFMV3+T70KWltWUGsVpnLhQAfeInujWELzNyAktKq4cx8mCNgiPvQf6dDNXS3Qnm0V7Oxc5LF8dw5ks/qY/cqRV5uHUySuosPdGePcuCJQarDHNyRMbZTeLZH5ocTs3h9nLEeEsbkzVtXV+iXrzmyMuu5i9zdZqK2O5uT40H/vm4rg5+dBAq8RYa9Q4Aya2bs01oTESsonbpDHmfWGOFq3hzbCtdfIzDVqppqlLLyPnXAk8u/ZCuOTtMZb6Owu0xhpljpaOa9ZHapRezsG5Ek907RUOE7NIrpUWrhXBxma7Oahw9NWeSMmIwRtvP4k+flrkH/gQc94pwGN79yMt2ty9hHpUR+Yg8W8yvL/ndfQ1+YYFjjgNzXbeF6OsfJHC4XA4HA6Hw2ltfoNmm1H5Kzb8axG+zLqAmzUO8Ox0L/769CxMi7fwaWdVJSrhApcWvXX5v4gaxxdNxhu1z+PrtL4te+eXw+FwOBwOh9Nsfptmm8PhcDgcDofD+R/EyrtNOBwOh8PhcDgcjq3wZpvD4XA4HA6Hw7lL8Gabw+FwOBwOh8O5S/Bmm8PhcP4rqHC7ogpW/iQCh9M61Ao/pMKjjsP5LeHNNucPh+rwaxiQkIa9Db9m2wgVDr82AAlpew3bnN8GFQ4tSEHS3P0NP3P7e0N1CAtSkjB3vyChBtcz12D1vka/wmYOzXVkrlmNfY1+ra910ELx+QR0HbW8+b/OqDqM1wYkIM18InA4Zinb8hSik9/ELxZ/lbkOLSqunUWu6W/U3yX+nLVEcz0Ta1bva/TLppz/Jcw02yoceW8ypi8/BatzkfM/g+rIe5g8fbkVP59vC7bFHFUU4OL5fJSb/R4dQkXBRZzPLzdsc+6Oz5oi2P08zuWV6X529ncJVaDg/DnklQkSViFr2WzMXpoJyUipysKy2bOxNLOV40lzDp99koWej0xEqNivWlhC0OfieeSbT4RW57eJI87dxuuBqRh243N8kmnmd87NobmM5RN7YfTiM79RT/DnrCVVWcswe/ZStHYp4fwxMNNsq5F3fCd2ZSvMvEpT43ZxCSob/wVKU4mSQgXKRP8spYayuAjlwg/uN0VbgzKFwswxDSpLCqEoq7H6T6yqCgUKS82dr0JFUSGKK617Oam+XYxipfmSoqooQmFxpeirV7WyGEVmFbV0bRO7CnYpLMANETkkbWqCFjVlCiisO7kBERnUecexc1c2FGYUEWxXYhwcVvpRLOYE2QtRcEPJzjCPRrC5NXFiMU6ZFM3yH4svRSFKW/nPstqaMigU5Wx0G2iGz5jTUFxS2ch+NuaeWoliRZnEO1Di+Seeswzmr2JFKcyaVVWBosJiiKV00zgU/KooayqhG8atUeDG+kfQ3rBHR9Oa5DYOaxQ3sP4Ro7OYeCUoZHqbk09SLwPqs+ux4UxPjHjAt1ERFo8lqfl0aJgfisSON63blvPKXC6Ix5FEjWW+UhSK+NEIoaYpmp9HFmLCFKkaalsOiPrbZpnEMT9H8/wI5yQ8OKAaW7/JhJXtNvRfECzW+krby5p80GGplkjYU2oOTSXLf5FjNq3LDFtqSdMa7jZuDRQ31sO4lLSS7cRozV7C4limiNre0lhN1yVbzzfBcq7YilS/YBbhe7br0Sjoswnh5O1iTw5uvtQhOJzGrsyn6qz5lDx8Hi1+tge5y+TULe0IO7mcji6dRLEBvhTcuRP5eIVQ8gub6Kr+x/Apa34yjUj/hNKHdaOwEB9y9Y6jmZsLSCMcZv8v2r2Ahob5UEBYOAX5hdLANw/pfje//OhSmhQbQL7BnamTjxeFJL9Am/SDmkd9kb5I7UEBvh0pvIMfhY77lHL1k1D5kfdpXPcACgiNoCDvIOo3cyPlig1Vfoj+b3gE+fh3pGB/Xwrs0IGCw0bRx1fYBeVH6P1x3SkgIJQigrwpqN9M2mgYqFawzYh0+iR9GHULCyEfV2+Km7mZCgwyWLzWyK6ZdPitIdTZx4dCIiPI39ObeqR+SZd1p1uyqSmaot20YGgY+QSEUXgQs83AN+kQM3LN3pcpPnEeZdYaTqw9SPMT4+nlPYIHakRk0JDiswkU7u1C9g5u5NshmMLHrqT86iyanzyc5i1+lnq4y0jeLY2OsHGt9qNIzFUdfouGdPYhn5BIivD3JO8eqfSl3hBUs+MJ6tBuKM18cTB16RRKgZ5eFPXIv+lXnT41tOOJDuQ9eaPuXCaJRJy2zH/qi19Qag+mY8dw6sBieNynubr9RpSvp+nd+9Kr+6oNO9ich9Kpf+yztEVp2NEYTRHtXjCUwnwCKCw8iPxCB9KbzGmt6jONPpaGz1tMz/ZwJ5m8G6Uxp9mWe2zsHWnUP8iL/DsGU8f4VHr6fj/ymbKJ6jQVzT+xnGU6zbtvJM3/+FUa0jWUwoI8ybPLRFpxuk7pcjry/jjqHhBAoRFB5B3Uj2ZuzCWdhLVm4rBaQTvS+lOQlz91DO5I8alP0/1+PjRlkyChYIMk6v3iD7q6I1qThHGTetOLP+jPYkaipZNimezB1LmTD3mFJNMLm67qZZCoRcZoKP+DFHKNTafsO/o9orEkNV/NDnqiQzsaOvNFGtylE4UGepJX1CP0b30imKkvR6hGIq/Ec0EsjiR8zCS8+EUq9WB51zG8A4vjcfSpeWOwErCD0u4LIi+h9ob0osfeTqOH+r5IOpPX7KWX4xNpXkPg08H5iRT/8h6D3yRiwgTLNdSmHBD1ty0y1dDel+MpcV4mk05P7cH5lBj/MulSW2SO5vlRd1jHjRUPkHu3V3S12iLqC/R2X2fquSCHDOFaj6S9bMgH6VoiYU+ROWoPzqP7Rs6nj18dQl1DwyjI05O6TFxBDaXElnWZ9TtsnbK6lojUcGHcpN6GuGa03HZltC41mvrN2V9fc6kmi9KTetAzW0pasZcQW18Mh5sgbXupscytS7dsPN80oKVyxQQL9caa3BLDuNlmqKuLaPUYLwpO3UxF5beomskkNDdBTm0p5IF36eDly3QhX0mVe56jSM/eNPdgqc5B1aeX0P0+7WnkqutsS2h4gqiNdyKl7VKwpKikH1+NIece6XRCyNZbWyk1xJsGLz6tCxJN6c+0futJqq3cQ89FelLvuQepVD8oLbnfh9qPXEXXRZSp3T+TOvuOoTU3hBMq6dqFXPZ/4elemhnpR0MWn9Jtq/O/ookhgTR5falwtAlquvBuEnn0SqdjTCDNza00PaIDTV1/kxWXSto7M5L8hiymU/qB6KuJIRQ4eT0JI+ls08abEtN2kYLZqvLHVynGuQel6xS14loju5bSyc1rKDNfn421Z9+h/m5d6aXDguMt2NSEW7Q1NYS8By+m03oj08/rt9JJNlR1xlTyC0qlbXUZWrOdpgc1FA5RGdTVVLR6DHkFp9LmonK6pQ8OeiLIidqGPEDvHrxMly/kk9JGP5qLudqTm2lNZr4uwJkQ9E5/N+r60mHd+Tq72TtR1Ay2sDPd71z8mB7wbkcPfaYQjho129JxahirWf6rpf0zO5PvmDWkD71rdCFXF3nGaK7Tsvs9KCh1K+l7a7a4/r9wajfyU1KYscWtrakU4j2YFuudRqU/r6etzGmt6jNDLDm1DaEH3j1Ily9foPwbNuaecic92cmT+r99kuWwmgq/f5Hi3Oypfd0CKZF/ojmriyU5OUel0rorTPY7l2j5cB9q99dPqZCdWrl3JkX6DaHFemdQ/lcTKSRwMulS2kwcFu18kjp59qe3TzKJ1IX0/Ytx5Gbf3mCzhjjRyStWk4RxO3jT5I3C3kra81wkefaeSwf1RqLTS+4nn/YjaRUzkqheJtTQ9ulB5DF6Dd3WbYvFkvR8ep3tySlqBmsUdIlAHz/gTe0e+kwXW+bqtsW8EssFc3EkVWNr99PMzr40Zs0NXd5VXrtA5tKDBRLtfLITefZ/m/Ru+p5ejHMj+/ZTSOem6gya6hdEqQ2Br7NdXSMmGRMmWKihNtYtMX/bJlM1ZUz1Y/Vhm04fgZrt0ynIR6+/2BzN9qOB2gPPU2fX4bSyxLBDCrFm24K9rM4HC7VEyp5ic+hsIHemqNR1pC8ly2m4Tzv666eFuvNsW5eVTETra4lYDRfG7eA9mfSlpDVsp6FrHw4m95AZtNNwsGbP/6NwrxG0srC6FXsJifXFDNK2lxrLzLqktPV83WlGSOWKCRbqjTW5JYbJbST2Tq5wktvBTu4MDw83ONXdT+iYhLRls5AQGoqIIAdkfZMBReJTmJXgpfszqFNUKp4a5oB9W/foz4cd3IbOwoJBfrCHM3oMSoDvtQu4qAJqD2Zg5637MG1aFJzYmTKvWDw8PBqU9Q0yFIl4alYCvPSDIvWpYXDYtxV7busGNUHm4Qn36lPYtf0UyrXOCI4IYbOxOY5uwJYbcRie7IC8c+dwUdkNCTFVOLwvx8yfqdTIzy2Ea8y96MYEknn1wD3B5biWXwlZ7VFs2HIDccOT4ZB3DucuKtEtIQZVh/chxzCQndtQzFowCH7MVs49BiHB9xou6BS1fK2xXb0QPXISEoPsoSzKRZ7GH8HuxSgorPvjiLhNTag9iIydt3DftGmI0hsZsQ8PR7TF3253FJfB3gmuTnLY2cnh7OEBt4bgQFLaMhYLoQiNCIKDjX40F3OO0SMxKTEI9soi5OZp4B/sjuKCQsMVzBIeI5H+3iiEOAAO4RMxMUmNgz8cNhyto9aKOG2u/2Tw8HRH9ald2H6qHFrnYESECJHXBJk/Rk9KQfX2tdgl6F6ThXXbbyFl/Ej4mWRfLQ5m7MSt+6Zhmt5p8Ip9GMMtOq05PhNCLw3LmI9CQyPgnW2bz1THt+OHkgRMfTya5bA9/AcvRPqYhlsipPLvjkjO6rBzw4j0RRjTiensEIbxExKhzvoBh1W1OLphC27EDUeyQx7OnbsIZbcExFQdxr6GZGoUhz44u/0HlCRMxePRzJb2/hi8MB1jfE2MrkOsJhlZvjYL32QokPgUy1e9kRCV+hSGOezDVmYksVpkSjUUijK4tm8HuW5bJJYszKfDzgMj09/DKH0iYOLEJKgPCvbSHzauLy6W80osF8zEkWSNlXnA070ap3Ztx6lyLZyDI2AuPVggYfsPJUiY+jj0bhqMheljIOKmJlgTE02RWJdsrFvm/d0cmcQRi6lm+9GAva8v2mmLUGj23jLrsGQva/NBupZI21NqDju3EUhfNAb6UjIeExLVyBLWCJvXZTmOW11LrKvhrWM7GYJGjUPSre1Yt6+Sbdcga/02VAwYj5H+Tq3XS0itLyKI2t6KsRqvS0Eutp5v2NkIS7liK5ZySwxz0WIWO0cf+PvUna7C9YISuAcGwtWwh5kUAQHtoS4pNmwL2Bn+Zc/kjpBr1bp7o1RFRSjz9AOLByNU1wtQ4h6IwIZB4RAQgPbqEhSzgm0Oh5jZWPFuAs7O6YvQqAcxd/MV3T1SGoUCxVVHsGTqeIwfLzymYEVeOKI7ebDgakobxAzoC+x8H29+9R22rVyAlTldkNw/EDKNAoriKhxZMtUwznhMWZGH8OhO8Gg0UL2mbDFylGuhFhS14lpju2pxfdscDI0MRHifYRg9cSG+v6kFGalu3qYmqIpQVOYJv6ZGtog1MjTBzhE+/j71wdQcPzZFe30b5gyNRGB4HwwbPRELv78JbWMhZMzOrL/Q4wQfH3dUlpYatuuwNk4bWdVq/zkgZvYKvJtwFnP6hiLqwbnYfMVcwsng8+Ak3E878c3OclQdXI8dVYMx/oF2huONUaGoqAyefv66hs96muEzprGjjz/qQs9Wn6lZDt90ZTnsZtjBxnOwbygnUvnXRiRn9cggd9S3oAJOPj5wryxDWa2GNajFqDqyBFMNvhg/ZQXywqPRqSGZGsWhmtnyJlyZLRtEdEAjEY0Qq0lGqK6joMQdgcZGQkB7NUqKy0VrkSl3oLpDcGD5q0cklizMp0ewV30iGOxVilJD02BcX6zIK4bZXDCDZI11iMHsFe8i4ewc9A2NwoNzN8NseqhZnbrpyupUvZeYm+zra4k0VsSEWUTWJRtzwLy/myuTecRiqsV+dHBgUafBHRaHzcWSvazNB+laIm1PyTmENaK+lBjWiLIyC3Vdf7Zx3thSS6yr4a1lO5nfXzFuQBV2btyHypqDWL+jCoPGD4dPa/YSzVlfxGxvcSzjdcn2802xJldsxdoa2RgzIgq7GpxgHjnc3dtCWVrWKAC0KL5ZDkdvP8O2OHI3NzjdLkfTbxKSu7ujrbIUZY2iSlt8E+WO3vDzFLOmG2JnrMThS6exdmI1Vk17DqsVWsjcPODmMhBvHspGdrbhceIYMmbHsiLTFBXOHPoZbr0iUbTpIyz/oQ2mfr0Br8ayM2Vu8HBzwcA3DzWMk30CxzJmQzgsia3X1u7BG89+BNWMfci9cgY5R5dhbKBEFEkhd4Ob022Um/u6Jpk97O7cYUu+ARZ4+g/AMCzIYFV02OzHpqPWYs8bz+Ij1Qzsy72CMzlHsWwse+FjOFpHwzKhQlmZEq7tmjawLYtTi/5zi8WMlYdx6fRaTKxehWnPrdZf1xTPYZg8vA12f7MRW9dux51hE3C/p+GYEXK4uTnhdnm5adH7nfnM3sUVzqwJrmvqBG/Uy8OQzj/zOVtPo3FUZaVQurZDuzYyuHm4wWXgmzhU74tsnDiWgdlmk8keLq7OrMCXsmgyINw2Z3jaFLGaZITcHe5tlSg1NhJuljvC209wqAW96nFhcSVH5a2KBnnMxZLF+QwY2avMYC/DDiOsyysxmsaRpRrrFjsDKw9fwum1E1G9ahqeW63QX9gYexe4ulSy/K2PbOHWRsMzARns7VjcNwQ+WyjrjtsaE9LYXrfM+ZvttVEmmb0d06+R/trGcWpujuoW+VGAbt3CbTa2p+i6ahnL9rIuH6RriSUfS8/RYEe2RpQa1gib13RbaolEDW9Ea9kOMh88OG4QVDvXY/t367FDdT8mDPNq3V6imWOZtb2tY7VYD1trnlS9aRlm52zr3AbKkpuNGpSmOKLvwATIMr/G2qv6kNLkbcDnO9VIGZWi25bCsXd/9Nbsx/otCtb6MCqysebLLKj6DkSCLBNfr72qD1RNHjZ8vhPqlFFIaXjjw4ia8z8hu5id7dQJKeNT0PGO8IX9bI57k9HH4QC+XpfbEPSqCpRXGZ4boUJBfhGq7rghavBDGDdqELq7q1ElXOh4L5L7OODA1+safT+mChXmBzLG1ms15Si7JYdfcCB7LahF6ZHdOFZibrG2Asfe6N9bg/3rt0CfoxXIXvMlspTsFXRwMPyVp5F9XvCwEj8teg+bbhjmsSRDW2e0UZbgpnhwwLEZfjSOOQ3Ky25B7heMQCdWhEqPYPexEn2sGKDyHVi66ChbMNjxggysy7RHwsC++oP1tCxOpf1Xg/M/ZUMfeikYn9IRd25X6E8xwQUpjzwEz12v4aVv7fDA+IGN3mlvjCN69+8Nzf712GIorBXZa/Alc9rvzWfynn3RU/YjtmzT57Dy+Af4V4YhnxlS+SeWszqoHDs+WISjOsdex8a1mZAlDERfR0fcm9wHDge+xrpGX1SrqiiH+WySo2ffnpD9uAXbdLZU4vgH/0KGuQWLIVaTWLo04NgXAxNkyPx6LfThpEHehs+xU52CUcxIknoZ4YCw8A6ovHbFkJsisWRhPh2CvZbW2asAGesyYa+zl/6wMZbzSpImcSRZY2vO46fsYrbfCZ1SxiOl4x3cNmcMeU/0jZXhxy1b9bZQHscH/8ow2IXhEIxgfyVOZ5/X1QblT4vw3qYbBpltjQlpbM0B8/62VSYHBAf7Q3k6G/rU/gmL3tuEutQ2P0cL/chQXbmCArdQhAv3smnzsGXhs1iw8UqDH00g1JRexa+nT+M0e5w5X4g7FuxlbT5I1xJpe0rNIawRH9StEdc3Ym2mTL9G2Lym21JLxGt4YyzFmvW1BPAaNh5DtVuRnrYF9MAEDBZiVdOKvUQzxhK1va1jtVgPG3NFst60EP2t243R0M2MVApzDaCY/on06MprVLX7GQoLeoy+rbtnXODOWfp8ajdq59uFElOSKCogiPrM3ETXhM9fUQ3tfiaMgh77tv5DH7WHXqIon0m0XrejmrKXPEgdPYOoR/IA6hkaSgNeP0SVdIfOfj6VurXzpS6JKZQUFUBBfWbSJv2gZind/CRFBnSmPinJ1CPIh6Kf2mj4MMsduvhlKsV4e1Nk30E0ZEA8/SW4Oz2/S3+jvTEauvrvhyioUzJNfSKVHnvkYRoQ6UWBD3xIv7Kp71z8klJjvMk7si8NGjKA4v8STN2f36W74b6mqW1qD9FLUT40Sa+obddSGe1+qSd5toukvv1iKOq+x2hsryCamiGcYMmmplRnL6EHO3pSUI9kGtAzlEIHvE6HdB8IuUSfjetErj5R1K93d4p7ZAE9eW8wPbZFGEhKBmapmxmUGuZKATH9KfHRlXStajc9ExZEjxkHh41+NI25kt0vUU/Pdsx3/Sgm6j56bGwvCpqaoTu7ZvfTFNH9YXpicCRFxPWnnh08KXTUsvpPO+9+JpQCmZ10SMZpS/xXSpufjKSAzn0oJbkHBflE01Mb9R+6NEvtEXq1u5wcwp+jveZCsI7qbFryYEfyDOpByQN6UmjoAHpdcFpr+kxjGku2+6ySfvrnIArwCKG45HiK6jme5j/Rm4If22IYUzz/RHNW92FED4obPpi6RN5LST07kGfYw7S87isE7lykL1NjyNub6TloCA2I/wsFd3+edCldYyYOK3+ifw4KII+QOEqOj6Ke4+fTE73rbNbUBiI1qcm4d85+TlO7tSPfLomUkhRFAUF9aOamayRYSbwWmaLc+Aj5+U2hTboP9IjHktR8gs5PR3Snh58YTJERcdRfsFfoKFpmsJdpfWGRIplX0rlgGkcSNbZ0Mz0ZGUCd+6RQco8g8ol+ijaKGKPyp3dooL8HhcQlU3zXGHpoQjL5GD4gKHwg7tJn46iTqw9F9etN3eMeoQVP3tsQZ1IxYYKlGmpbDoj62yaZhNT+jMZ1ciWfqH7Uu3scPbLgSbo3+DESwlRsjpb4UdDzpznR5Db4Q7287Pgr3dyo88y9zEJm0FyjDwe7kJ3QcRseds4P0ee3pO1lfT5YqCUS9hSbQ/dhRI84Gj64C0Xem6RbI8IeXl7/bSS2rcsMW2qJSA03Hre1bCegpO1PdiK5YyTNqv/Wq9bsJaTXl6ZI2942uWw/3xSpXDFFut5Yzi1xzDTbAhoqv3yUDhzMoeumH4FthJrKr/xMB/cfol8KJE80S3XhKTp0IItOFRgLqi6/Qj8f3E+Hfikw8wlcU2pvnqMjBw7QT5fK9ItQIzS3r1FO1n468ONpuq4UidbaA/R8pB9NWFtu2MFS4cR8inEZTB/VfWWE5jZdy8mi/Qd+pNPXlcxCNmDTtXeo5NIxOnT0IpXZNIkI1YV06tAByjpVYByQGiVdy86iQ6cVZKg/jZCWQVN+mY4eOEg50sFhox9NY+5OySU6dugoXRQzBLNr7s8HdeNLh3rL4lTcf7V089wROnDgJ7pUZn5BrkdzlZYMdKfIWQ1f8SVONRWeOkQHsk6RUWr8Dn126yqz66FTVCjSSIjln9mcrf/mj0pSXjuhH9fEsRq6fS2HsvYfoB9PXyexlK5Hc4uuCjFyqlC3kFpCrCYZoS6nK2zM/Yd+oabhJFWLjCj9msb7hdLTu+vmkYglifn0MJvkCn5gx6UTQYfFvJLAXByJ1tjam3TuyAE68NMlspget67QscwsOskUqG70bRx6NCwesinr0GlSmE0eG2PCArbkgLi/bZNJo7xG2VmH6LQZBcXmaLYf1WfpzT7udN+/LknHqJVI2cvqfGD2kq4l4vY0N0f9N39Uspp5Qp//pqXExjXdploiUsOb0Dq2E6M1ewnrx7Jse1vlarketuWKpXrTPOyE/wnvcP9PozqKV3umICPmDbz9ZB/4afNx4MM5eKfgMezdn4Zo22//43CM0Jx9G0lxnyNhVw7+af5v/JzanZgRMQVVS/LwxSipjxf9GajE7mdikKp6H6dXDhe5reh/k9odTyD80VosvfYfPPRnD4P/Auqc19BnSDaezd6IxwJsuf/1j0PtzhmImFKFJXlf4E9fSn5ncNub58+Zabbi2Bvz1n2OSS4H8PGCl5H2xn9wpvMr2JbxMm+0Oa2AFuW/3oD7Q/8PU+7ljbYo9j7o2i8J3f3/F8qSCwa8shh/iwJKG25F5TDsfaOQkNQN/xNh8F+gUhmIhxYtxKQ/aaMtYO/TFf2SuvMY+i/AbW8e/s42h8PhcDgcDodzl+CvPTgcDofD4XA4nLsEb7Y5HA6Hw+FwOJy7BG+2ORwOh8PhcDicuwRvtjkcDofD4XA4nLvE/0SzrTq0AClJc7G//rdW/4CoDuO1AQlI2/tHVqIZqA5hQUoS5v7GzlMdfg0D+qWhVcz9X9KBw+FwOBzOf5/frNlWHXkPk6cvxym1YcdvCFUU4Py5PJT9kb93hSpQcPE88sv/x748RtD7/Dnk/cbOE2Lm4oV8tIq5/0s6cDgcDofD+e8j3mxra1CmUKBc+IF4IzSoLCmEoqxG9Pfi1cpiFDW5UJ13HDt3ZUNh8p2yKlQUFaK4UuzLZtVQFheZkUNA6lrhOgXKRN9MtKSHGreLS1Ap9aP4mkoUK0pRY3KOFjVlhSi4oWSjmKPp2JbOby7S9rldXAyl2Qkt+7gOVYUChaXmzrPgV/VtFJdUio4vxJBC3Hls3iIUFlcySZvC5lUUotTUKRLXCOFeBoWi/P+3dyZwTZ7Z/v+xikhYlLBFkE2qLGURFQQUEbfaOrV1tzK1uLTj7bWd1lZrxbm302U6tlq7Ouq0vR1bx7rguE7dlcW1oqNO3WWRRQSCBoGQcP7PmwRIIHkTQOZf2+fbDzbL+2zn/M55TpL3TVjrtqju3W6jZy3ifjO3BnVNBUpKq4zoR8yuHA6Hw+FwHiaMFNuNuL3/DxjT1w9hCYkI9wtE6ru5EEqG6pOfYkaMLwKjhyH+ER8EDH8Fmfna0kWZk4HhTyzDmmWPISoyFhG+Mgx86R8oaWxE2dfT8OgL/0B18XrMCPZD8OR1uMWqiOoTqzAlwh/944ci2r8PEl7aigJNd0rkZAzHE8vWYNljUYiMjYCvbCBe+kdJc/Fhui1bQdkeLB7mD79H4xD5SBzmby8yKIbMruPxpfjovwait5c3Bi85oXm8GWU2lib/BhlfvIHRERGIiw2Cd9h0rL2oLcbqj72H0SFe8ItKxrBIX3hHz8Z3N0z3LXa8aepx6PU4JC3Nai4OldkZSIp7vfm0BzH7VOe+j8f7+iBk4AD0lcng6+uHoKe+wE32vJhtDFBfw/rZ0fAPYfOI9EfwlK9QoHOOOb8+vvQj/NfA3vDyHowlJ1oVsY1l2LN4GPz9HkVc5COIm78dRQbOO4FVUyLg3z8eQ6P90SfhJWzVLUx9bT1ms8dC4pIQ6R+MKV8VaB4Xa4PG29j/hzHo6xeGhMRw+AWm4t1cnRGF5xanIiJyoJ6etU+J+s3sGk7i0xkx8A2MxrD4R+ATMByvZOZrXwSI2JXD4XA4HM5DiPCjNgbc3UHpfu40cuUFze/Zqyt/pE07zlF9zQF6McSVBi3Jokrh5+VrL9CqMVLqNX4d3WL3hd/Dl3Vzp8RFe6lURVRzbDFFOkZRxpkGIlUtlX0zkdx802lbmZzu1goHHKQFIZ40auV5qmHdqYq+o2l+PjRjUyW7V0e758iom3siLdpbSip2xLHFkeQYlUFCd+JtFbRnnj+5Dn2PzrEFqEp+oFdjJWTTayZtFRZkyTocupPfY8sp6/p1ulKkYAfpUbeb5sjsyDE0nb6/UU/UcI1Wj5NSz998SSWsff25bbT+aBFbAaP+J3p/qIT6L8zVNW3bt9jxBgjj9nanGVuERdRSZponydJ3anwkULdrNsmkTWsUsY/qCi1PcqEBGadYWzXd2TGbgnun0aY7zLBmbKNP/eEF1NdjIq2/LTxRQwVX8jVjWeJXh+5+9NjyLLp+/Qq1Nq9izzzydx1K72mdRz+8GksSm140U7swOrgghDxHraTz2s7pu2l+5DNjE1VSPR1e0Jc8Jq4n7ZQK6Eq+cJBYG0Hu6eTnPpJWXhD6V1Plj5tox7l6ra9sXSnOmJ4ZYn4zt4YDL4aQ66AllKU1Ml1YNYakvcbTOmZkk3blcDgcDofzUNLmne36rEzsuTsMzz4bCuFn7a3dovH0uAhQ9t+RWZqI519OgJvQyiEU6c+Phe2hHThwT9MUVpLReHlZKjxtAMeoVCR4FODKVSVg4wAnBztYWdnB0cUFEgcb1J/YjO23YzEu2RaFly7hqiIMCZH3kXvorOZddNYbJKNfxrJUT9jAEVGpCfAouAKhO9G2ytPYtb8CCWnPIYItwMZrJN7KmAgP3UrrLVgH7JOw6IuXkRAQgGBZD92DelhJ8HjGCkz0twdsAzFlaiJU2fuRy+ZmHzEe0xNlsFGUIb9QDS9fZ5QXl+gaMlr1bfb4DiBqH1UR8kucEDkwjPnXGm5Rj8JXXoCiGmvLbKPD2sUVzrXnsXfXecgbHeEb7Me8ZGZsbVNmgkX4go0REBAMQ/MqcXrXflQkpOE5rfMw8q0MTGx23gls3n4bseOSYVt4CZeuKhCWEIn7uYdwtt4aLq7OqD2/F7vOy9Ho6ItgPzYj0Tb1yMrcg7vDnsWzoRq1wy36aYyL0P6kupXrOCw0pmeGab+ZW0M2/p5ZisTnmQa0RkZo+vMYa3sIO5iRTdmVw+FwOBzOw4muAmhBWVaGKldPeAm1hx7KW8WocPaBj5PuAYattzd6qSpQLm/5nNtK93+wwtrerhEq3SfrrVGXlqL8/nGsSpuCKVOEv5lYUxiECH8XVlw30dwb684edo0qzUftom1VZSi74wRPL4m2IcPK1qZ5oZasw8peCi9pG9PoYQ07ezvdbVYuSaVwrqnSnB/eeGsn3hgdAp+gOIx9ahre+uEOGknPPq36Nnd8RxC1T7dIDI8H9nz0Dr77506sXbYWZ/slY6iPtcU+FrCNfAVrlifgpzfiERD6BJZsu6E5pcW8X61gL/WCcfOqUFZ2B06eXmj2npUtbJqOVZeitPw+jq9K0/U9BTPXFCIowh8uNraIfGUNlif8hDfiAxD6xBJsu8FmJNpGycargisbr5XcmzGlZ9N+M7MG5S0UVzjDx9DI8O6lQkW53KRdORwOh8PhPJy0KXnsJBI43JND3qpItnN2RndFJar0dv7G8juQ27vD09Vo5WSAcERL6czuS1wg6TEC7+TkIS9P93fmFDJfiYat7hhTiLa16QEnxxpUVTa9j6o5VUZ3q/PraEbviyWUVZVQOPVEz271OPD2fHymnItD+Tdw8ewJfDHJp62Rm2nv8S1Y21ihoaFBd49Np5GapyRqH+VF5PwowYCQMmz9bDX2d0vDhs2LEc2M3j7bSBA9dy1yr13Axmm1WPfsi/imtLFTfgUrx3s4OaKG2bPZe8x3zaa2lsBF0gMj3slp6TvvDE5lvqKZPyTRmLs2F9cubMS02nV49sVvzLSxg0TigHtyudGLJk0j5jcza7BzhnN3BSoNjYw7cnu4e7qyO8btyuFwOBwO5+GkTV1nP2goBqkPY9P2Uu3FiNV5WP9tNpTxI5BgfRQbNt7UXchViM1f74EqZQJSWt5ENk13R3RTVOCOrsawH5iMONsj2PC97sIwAWU15Pd1t0UQbWsXg/gYaxzbvhOaGkVxGh9/mKm9zbDv7DoESI7dH6/ACeHUisZb2LLxKKwTRiDeXg151V3YefrCx4E9VXkc+05ViHyjRHuPb8IWvr5eUFzIw2XBnoqTWPHBVtxuWqOYfZTFKCq7jwZJKEY+ORkTUsPhrLqvOa49tqm7fBJ55ewoB3+kTElBn4Z7qK7rnF+Z8xATHwPrY9uxU+s8nP74Q2Q2O28gkuNscWTD92i5ZlOJak3ndbh8Mg/aKaVgSkofNNyrNtPGHoOGDoL68CZs141Rnbce32YrNLdNI+Y3c2uIx4gEaxzdsFFzQarQV+Hmr7FHlYIJzMim7NpYuB1vzV+GLWYvnuVwOBwOh/Nzok2xbe37W7z3vzHIeT4WA4anYED0U1h3wxq23jPx/orRuPraYIQnjcDQRwfj9cKJWL1yGryEXuzsYN/NXu/dS1v2kB3sbLVD2Mc9gbGuu/H7pGFIenYdbrlPxfsfPYbrC2MROmQkRqfEoV9wIv4nR/t+oJ2dPbrZ670Xasv6Yv0J3Vl7iLS19sK0ZUsQlvU7DB48HHGD5+L0kKcwwNFWMzfrdq/DCFY9ENjjIH4bOwhDB8bhpbOJePftafC0dkTq7Nnw+ycbe0gCYpIyUNqnL7rb6npr07eZ4w0Q1m8PrUlsEfHbl/B4xXKkRidgcPzvcHHoJEQ3rVHMPo6DMCpRjZ+O/4iT2Qewc/2fkBYbhvGf/QQyZxs9an9ahymR/RE/YjhiU1eiduZLmOpnLT42o41fDbCG17RlWBKWhd8NHozhcYMx9/QQPDXAERqTWHtg6vsf4bHrCxEbOgQjR6cgrl8wEv8nB/WoxU/rpiCyPytmh8cidWUtZr401Uwba/j+9j38b0wOno8dgOEpAxD91DrcsGaLFbRrUs9ifjO3Bm/MfH8FRl99DYPDkzBi6KMY/HohJq5eiWnMyKbsqirKxt+/+Q5H8o1+VyOHw+FwOJyfKVbCVZK62wbUlV7AmSvVcA6OQZh3yxmt6uqbOHe+AHUufREZ7t2ui7caq2/g9LlidAuKxqM+2paNikKcP3cD1TbuCArvB58erao6EcTaNt7Lx1k2ln0Qm79XN92jLXR4HfV7MDd4Ju6vysfq2MvIK7JDUHSYwTnuqsrrOHupAq79ByDIglNT2nt8E401hfjX2SLYBQ1AqKf2oj59jNlHefRlREwqxR8vfYdJLsJRKuRlxCLx2Dxc2/MCe8FguW2UFWz9F8tgLYtAdKCr3rn2nfMrcx7yz55DsX0QYsK80MZ7jQoUnj+HG9U2cA8KRz+fHrpXjUpUXM7DxTJryCKiEeiqNyOTbQTqUHrhDK5UOyM4Jgx6chdF1G/m1qCuxs1z51FQ54K+keHw1jOymF05HA6Hw+E8XJgstjkmaC62C/G3CRZWZT8jlCcWIyYlE5Fvv4d5cZ5oLDqCT994H8WzDuLwogi9d3I5HA6Hw+FwOJ2FF9vtRXUaK2a8jfqXNmBRfNt3k3/+1ODfmz/Eim+zceVOHWxd/THwNy/g5WcHm/iGEA6Hw+FwOBxOR+HFNofD4XA4HA6H00Xw9zI5HA6Hw+FwOJwughfbHA6Hw+FwOBxOF8GLbQ6Hw+FwOBwOp4vgxTaHw+FwOBwOh9NF8GKbw+FwOBwOh8PpInixzeFwOBwOh8PhdBG82OZwOBwOh8PhcLoIXmxzOBwOh8PhcDhdBC+2ORwOh8PhcDicLoIX2xwOh8PhcDgcThfBi20Oh8PhcDgcDqeL4MU2Q6WQQ6HS3eFwOBwOh8PhdAAVFHIF+5ejj0ixXY+S07vw7bo1+GrzIVyqUusebwfKHCxLScKSw/W6B7oKJXL/MBwJiw6yWRtBmYs/DE/AooNtn1Vf+ghj+o3Cn3+s0z3SeZQ5y5CStATml21m3r9ylLl/wPCERbp7P1M6qPGuX5sSOctSkLTkMNdWO7A8dv8DqG/h6PpvcChfyL0tuUKg4/p5gLpoh/YfilgW4Wejiy7dU39ZOUN96yjWf3MI2vDRrwEMY6nj/JJzbEdrKjUufTQG/Ub9GQ+wpPpFYLzYvncKHz0Vjr4JaVj26V/w0etPIzooHhlZ7bQeVaP48iUUVpHugXagPI4PZszG6vOWvD4iVBdfxeUiObtlBGEeVy+jSN7q2cYC/N/iz2Gz8EssGeSge7DzUHUxLl8qhPllm5n3rxzBjlcvF+nu/UzpoMa7fm2Cti7jUmHVz1Nb7Yrv/xyWx+5/gPvZ+OKVV/DJUTm705IrBDqunweoi3Zo/6GIZRF+NrrozJ5qlp95zmgn97O/wCuvfAJt+OjXAIax1HEeLnspj3+AGbNXw7KU22Ijo2szUVM1FvwfFn9ug4VfLsEDLKl+ERgptquxd9E0vH4iHH8+cRNXfjyJM1cL8a+vnoKnsslLjairKkHxbeMfFagU5SitMvFar7EOVSXFuG3uvA1VIU7v2Yu80lbvqJttr4aivAxVdY26+yI02iDshS+xek5/2OseMkSl6Uuu1N0VRTi2FKaWLbxSrC4rQXmNqU8IxOZtrq0h6hpm/8o65qVWiNlOWY3Skkq0Hr6xrgolxbdNnmajuleOihoTtrbU12b0ZIgK98rLO3zaj6DNMhMOVddUoKS0qo0NjCGqcYayugwl5TXMq+1DbA7K6lKUGPOrPioFyll7kzNT16CihOnU+ABGNWCAyWPENCr4txSl+nY3Fd8Mc35oqzmRsS1ZU6djtwUhXkpL5axFa8zHfw2bQ6X+RCWTsb70NjY900v3gDiisdoZXbSiS7TfgdwkIDqW6h7KK2paxYuQPyrQLB/RHNVJXRgZvz05Rh9zNjfbr+D/MmO6ZJjTBrN/WUk5zMnfdH6yNH6M5IkmzM2B6be81FAjksnrUXp7EywLn3bsQQ/IXpbvj5ZgvlZRFZ7Gnr15aJNyzc7D8pqq0SYML3y5GnP6G6+oRHXYGiM+bcZcvjIa+5bR0b3bLNSa21/Rk64SSv3kJql1D+lTl/sujeorJalfCAV7uZJ7VDp9e12lfVJdSrsXDSWZmxf18e1Dg9NfoDGeUpq5tVZoSbnvjqK+Uin5hQSTl6s7RaV/S01N9VGXfkVTg9yph40tSTx6k2/QJFpbdF+kfR3tntObeo5eQK+O7Ef+AT7k6hZKz/z131SveXo3zentTjO2CPMQkNOJT6ZTtLcH+fb1J6mbHyX/fivd1PRVT9lLk+nxjL9QxtgwCvSTkpN7LC3YVmzUHgLq0t20aKiM3Lz6kG+fwZT+whjylM4kzbIZ8uMf0eRwb/IOCCaZu4yGLNhC+ZbMm2G6rSH1WW/SsPFL6fPFo6h/QCDJXF2p37Q1dEFrABHbqejq39IpitmiT1Bv8gyYTF/ms5XW5dK7o/qSVOpHIcFe5OoeRenfXmdHM+qzaWnyOHpz5XyKcrYmu7BFdLxpwhos97WYnup2z6He7jM0twXkOX+iccFS8urjS14ePtS7ty8FTvicbtQcpNcGJ9KbR5smUU9ZSxNp8GsH2EyE6S6l5Mcz6C8ZYyks0I+kTu4Uu2AbFTc5VH6CPpkeTd4evtTXX0pufsn0+603tWttjajGGfLj9NHkcPL2DqBgmTvJhiygLUYc1nptonNQXaW/pUex5/pQUG9PCpj8JQkuMkRNpbsX0VCZm8Y+fQan0wtjPEk6cytpZyameRMaMMD0MWIaVZfto2WjA0nqHUhBMjb3Ee9QVr6x+GZ9idnAhOZMj23JmjoTu61Ql9G+ZaMpUOpNgUEyNt4IeidHUJ9YH0ynbw6j8Us/p8Wj+lNAoIxcXfvRtDUXtPEvrDlpEL26X+hHmyvcZ2wRnjHUj1isdkoXreiE9tvovZkO5CYBk2Np8/e4N1fS/ChnsrYLo0VMKJocMO5NWjk/ipyt7Shs0VHRHNVxXRgfv105Rh+zNjcXM49Txl8yaGxYIPlJncg9dgFta0585rVx/KPJFO7tTQHBMnKXDaEFW/LbzlkkP1kaP8byhDZ8ROZQn0VvDhtPSz9fTKP6B1CgzJVc+02jNdpNT+PzpEGvkjZ89GuAVrEkVtMY8IDs1Z798eBrNDjxTWrZ2rJoaeJgeu2AZmezsFZh8/5qKgW59yAbWwl5sH0zaNJaKlKLzaOdNVWndKiHGZ8KNjZXu7WJvWaq6Pv0CBryxmGdvxh12ZSRFEW/264QxGo8p7A5LYnrw+qN3to/3340L7NG14HltCm26/Y+T37dBtEfLxrxPKP+3DZaf7SIuUK48xO9P1RC/Rfmap5T7JlH/q5D6b1zbCmqEvrh1ViS2PTSJYZ6OrdtPR0t0rRkTd+noZL+tDBX3xhNqKi27Bua6OZL6dvKSH63lj0i1l4QhoxsHEJpLhN3A/vv6uePkXvPJ+mrUubQVsKoOfAihbgOoiVZlRpR1l5YRWOkvWj8ulvNfXVzT6RFe0vZuDV0bHEkOUZl0JkGTfNWKGjPPH9yHfoeaZf9A70aKyGbXrrEzArBBSGeNGrledYTe77oO5rm50MzNlWye2bmLdrWEGEzk9k5Umj693SDmaTh2moaJ+1Jv/myhD0rYrv6w7SgrwdNXH9bY4uagiuULwxWf462rT9K2ib19NP7Q0nSfyFpzc3sKXOg7n6P0fKs63T9ShGzgj6W+1pMTwYbtOoKLU9yoQEZp1igqOnOjtkU3DuNNt1hTqnNpDRPGaXv1PpXsOuu2bLmJKixTTd3Sly0l0qZrGuOLaZIxyjK0Di0hg68GEKug5ZQVqVGDXRh1RiS9hpP624J9w0R13gNHVwQQp6jVtJ5rcPou2l+5DNjE7X2mGHxIT6H+sMLqK/HRFp/W+MhKriSr9GDAYo9NM/flYa+d461VlHJD69SrMSGeulsIKp5UxrQx9Qxohq9SzvS/ch95Eq6IExCXUk/btpB5+qNxbcZPxjTnNjYlqypU7FryN0d6eTnPpJWahdKlT9uoh3nmN4tiH87x1BK//4Gi5oGurZ6HEl7/oa+LNGt2VSBoK8fsVjtjC5a0RntG+pdnw7kJtGxtDZ16O5Hjy3PouvXr1ARS06aHODQnfweW05Z16/TlaJKkRzV+ZxuOH77cow+5mxuPma6kXviItqrTXy0ONKRojLOMKVpOhfXxsEFFOI5ilZqjUxF300jP58Z1Fr+JvOTxfFjKk+YmYNmfXbkGJpO32s3PVo9Tko9f/MlacNHqzlt+JiOJbE9yIAHZC82iMX7Y21mGnnK0qlla9tFs2Utb2BaXKuoaqnsm4nk5ptO28rkdLdWqO8eVE3VSR3qY8anltRurWO/BTUVfDqSnP3m0h6NQFmLA/9FQW6P09qSe6L5q14hp6qqKiraNoeC3UfRp1eN18ditDmNRF0lx124oGdPK90jhthHjMf0RBlsFGXIL1TDy9cZ5cUl7BklTu/aj4qENDwX4QDYeGHkWxmY6NE0hD0ixk9HoswGirJ8FKq94OtcjuISY2/028DByQF2Vlawc3SBi8SBPWKuvRVcxmfggwl+sGX/BU2bhiRVFvbntv7Aoh7Zf89EaeLzeDnBTXMejUNoOp4fa4tDOw5oD2F9SUa/jGWpnmxcR0SlJsCj4AquGvvsQ3kau/ZXICHtOWiXPRJvZUxE07LrT2zG9tuxGJdsi8JLl3BVEYaEyPvIPXRW9zGU6Xmbb2uIleRxZKyYCH97wDZwCqYmqpC9P5c9I2I7axe4Otfi/N5dOC9vhKNvMPwchSYRGD89ETIbBcryC6H28oVzeTFa3GWPpEVfMBsGgL2KRw/do1os97VpPbVCVYT8EidEDgyDA/OaW9Sj8JUXoKjGyJlQRrCSjMbLy1LhaQM4RqUiwaMAVwSH1mfj75mlSHz+ZSS4adSA0PTnMdb2EHYcuKdt3IwZjdefwObttxE7Lhm2hZdw6aoCYQmRuJ97CGdNfwJsdg7WLq5wrj2PvbvOQ97oCN9gP6ZKQ5Snd2F/RQLSnotgrW3gNfItZEz00J0nZkbzpjSgj4ljRDVan4XMPXcx7NlnESqcv2fthuinxyHC3kh8W+QHQ83Zio1tyZo6HbtN1CMrcw/uDnsWz2oXCrfopzEuwt6i+Jc8noEVE/3Z6mwROGUqElXZRvKWCCKx2ildGNBF2u9IbrJgLPukRfji5QQEBARD1pSc7JOw6Aumr4AABMvcTI/7AHRhML5te3KMPuZsbkG/VhKMfnkZUrWJD6kJHii4clXzMb45bZzYvB23Y8ch2bYQly5dhSIsAZH3c3GolUNN5SeL48dknrBgDmx9j2eswETtpocpUxOhyt6P9oWPZXvQg7KXqObbjYW1io0DnBzsYGVlB0cXF0gcmB7MzsPCmqqTOmyDSZ9alq+Mxr4Ga8gmTEbS3V34/lANu1+H7E07UT18Csa7nRLNKfY9WC5yuITP/7AFHr9fjtlBgv3ah1YnethIJKxwqkJFhfFT/htv7cQbo0PgExSHsU9Nw1s/3EEjCc5RoazsDpw8vSDRHsqMZgub5hEacWvnGxgd4oOguLF4atpb+OFOIzRNLcJ8e2s7YbvS4SCF1LkGlZWtha7EreIKOPv4wEn3CPMovL17QVVRrrsv0PJiw4r1a9eoMnFeYBnK7jjB06t51WzZNs2GVZeWovz+caxKm4IpU4S/mVhTGIQIfxcWHFpMzduStgZY28HeTnebCV4qdUZNVRW7LWI720i8smY5En56A/EBoXhiyTbcECKg8RZ2vjEaIT5BiBv7FKa99QPuNFLLOVBW9pB6SdsKSIPlvjatp1Z0i8TweGDPR+/gu3/uxNpla3G2XzKG+hifgTGaPcoSjr1dI1SCQ5W3UFzhDB+fFjXA1hvevVSoKG99AY0ZjatLUVp+H8dXpen8NQUz1xQiKMIfLmKxaWYOtpGvYM3yBPz0RjwCQp/Akm032iQpVVkZ7jh5okWGVrBtnpgZzZvSgD4mjhHVqJLFRpUriw1hBzWDJX5opTnRsS1Z0wOIXS1KposquDJdtF6ppfFvp7vdFP9VIufntkEkVjulCwO6SPsdyU1mx7KCvdQL0qa56bCyl8Kr+UGRcTuti1bjtyvH6GPG5pb225L4YMc2iEZN4jOnDTVKS8tx//gqpOlsPGXmGhQGRcC/lUNN5SeL48dknrBkDtaaNTXhIJXCuaZK5Dz7tli6Bz0oe4lqr0NYWKu0wfw8LKqpOqnDtpjyqSX5ynjsN2Ht+RtMHn4fe7YcQk1dFjbtvo/UKeMgNZtTlPjXylfwBc3FBy9HsJcp7afNlOyiBiLS/t/Y/0O+EYfV48Db8/GZci4O5d/AxbMn8MUkH10nNujh5MiKu8qWV63CaSq6m6g/gLfnfwbl3EPIv3ERZ098gUlihZLwVIuGLGyv9wJByZyjcELPnt10DzRhB2fn7lBUVmkSgpZGlN+Rw97dU3e/Hdj0gJMj2xz1BEhs3U1YS9iryB4j8E5OHvLydH9nTiHzlegWEZuYt2VtDWnpScnmpIBTz55mbSeJnou1uddwYeM01K57Fi9+U8qavI35nykx91A+blw8ixNfTILFda3FvhbTUyuUF5HzowQDQsqw9bPV2N8tDRs2L0a0xhDWsLFqQEOD5kgGKzT0fCCKnTOcuytQWdWiBjSW447cHu6erroHmjCjcWsJXCQ9MOKdnBZ/5Z3BqcxXdPM0gdk5SBA9dy1yr13Axmm1WPfsi/im1DAz2/RwgiNLSC0yFE4R0920QPPGNNAaY8eIatROAonDPcjlRpKq4GT9+G6XH7SYiw+za3ogsStgB4nEAffk8jY5syPxX2k0b5lGLFY7q4sWukj7HchNHR5LH7FxH5gudHRA21rM2LzD/WoR14Y1JC4S9BjxDnKabZyHM6cy8UobIxvPTxbbyWSesHAOLa5h4VMJhVNPWB4+lu9BD8xeFu+PDGsbWLGNrWVrY8Ww3nrbgzCCfsq1bB4GxjVeU3VSh0Yx6tMHULtZS/HE5FQo92zCrn9uwm7lGEwd68YeF88p6qtr8OqH5Zj659cRZ8F7R8Zo42Frr4l4YbIU2e/Oxv/uuYn77LFGxTX888O5eG1DMTPoXdh5+sKHDdhYeRz7TlWw5QrYISY+BtbHtmOnphBQ4PTHHyKzqShQy1F11w6evj5wYC0qj+/DqQrDgsGQ7nDspkDFHZ1ZzbYnyHd/ghUnhI8tGlGc+T2O2iRgRHzr1yD2iB+RAOujG7Dxpja41YWb8fUeFVImpGjutwu7GMTHWOPY9p3QLvs0Pv4wU3ubYT8wGXG2R7Dhe70XL8pqyAXDajA9b/NtDSH5bny84gQ0Pd3ago1HrZEwIl7cdnWXcTKvnPXvAP+UKUjp04B71XWsSRXu2nnCV+toHN93CqLu0kdsPAPUkJvUUyuUxSgqu48GSShGPjkZE1LD4ay6r7WLrS98vRS4kHdZE4SKkyvwwdbbxvtpjX08RiRY4+iGjdDKQY3CzV9jjyoFE1Ja3tnSYkbj9gORHGeLIxu+1363qwYlqk05rAkzc6i7fBJ55ewJB3+kTElBn4Z7YC4ywC4mHjHWx7B9Z6lm3YrTH+PDTO1ts5o3oQEDTBwjqlH7QRg6SI3Dm7br4qEaeeu/RbZCuN0qvtvlBy2iY1uypk7HbhP2GDR0ENSHN2G7rnF13np8yxZqWfx/3Bz/t7ZsxFFrY3nLNGKx2ildGNBF2hfLFaZ82NGx9BEb94HpQoc5bdedwOf//Sq+bvOdbOZs3v6Y0cecNgYmx8H2yAZ832Jktky5pibQx1R+sthOJvOEBXMgOXZ/vALa8LmFLRuPwjphBCwPH8v3oAdlL8v3R2Fr84WX4gLyLmt2Npxc8QG23jZ+rFm6O6KbogJNKdf8PMiymqqTOmyDSZ8+mNrNbewUjG7cgYxF20GPTcVIYYpiOYXN4dvX38Glse9iWYqL7jmBRhRufwvzl23BjRaXm0Y4cbsNmqsy+5OLjTXZ9XAmRzs7cgufTJ/8WEtV+xZSjGtPCokfQpGhw2jWpAEkS8vUtqs5SX9O9SYXv1hKHhxKMVOW0pxBvjRru3ASfRXtWxhDrj1DKH5IJIUOm0WTBsgoLbPpzP9WqO9QZnogOXlH0tDE39LaggqR9nW074VgCn96Do0MCabYoTHU2zWAJnyhu6q/bh/9LsCHZv1DN1bDT/R1Whj19OhHiSlJFOoto7gFW6lAc8476+t3gSSb9Q/NRQ8C9TkLKVQ6nTaZmGrNyT9TqrcL+cUm0+DQGJqydA4N8p1FmmULFxZ8m06R7u7MZqk0avhgesQ3nF7aK1yUYGbeom0N0VwM4hJL40b2o5CBSRTT25UCn16t+zYSEdtXbqN5Id7UNy6FkqNkJI14nrYIFzVU7aOFMa7UMySehkSG0rBZk2iALI205mb2DJS12LMNlvtaTE91+35HAT6zNLdJfZP++qSM/JPTaE76LHrm6eEU4uZDj336b1Kx/659NZn8naQUOmQQhcc+Q8vmDSTfWds1PhT6CZTNoubp1ufQwlApTdc5tOGnryktrCd59EuklKRQ8pbF0YKtBaxXI4hqnPV19VtKj3Qnd2a31FHDafAjvhT+0l7maUMM1sYQm0PltnkU4t2X4lKSKUompYjnt1Db66pq6OSfU8nbxY9ikwdTaMwUWjpnULMNRDVvSgP6mDxGXKO1eavoiT6uJItKpuExARQw/I+UI1yA0ia+1eJ+MKo5kbEtWROj47Hbito8WvVEH3KVRVHy8BgKCBhOf9QsVDz+hQu1XGLH0ch+ITQwSYj/QHp6tV7eal6zkJcCyIflJe1TevoRi9XO6KI1ndB+a7230IHcxDA9Vtv8LdAmB5jJUZ3K6UbGF9O2uvgTGuHgRc/t0G+hw5zN2xUz9ZSzMJSk0zfp5mZOG1fp2/RIcndnNkodRcMHP0K+4S9Ra/mbzk+Wx4/JPCE2B81Fei4UO24k9QsZSEkxvck18GlarfvmCgOfG9QAhrEkWtMY8GDsZU57Bqiu0VeT/clJGkpDBoVT7DPLaN7AJv+31ZpYraK+k0npgU7kHTmUEn+7lgrUYvNgfbejpuqcDvUw41PxfGU89tqioF3z/MnOPoRePtRypMmccnc9PSWxoW4SN3JzY389PSjpj2dZC7aO18NI0ncBHWwr6TZYCf/o6u421BSfx7mrFUCvRxAd1nI+oqryOs5eqoBr/wEIcm315njjPeSfPYdi+yDEsDaGHzioUHn9LC5VuKL/gCC0btqGxmrcOM366haE6Ed94GhB+0ZFAc6evQW7wGiEezfN2BhqVN88h/MFdXDpG8mObX31VPtovJePs+eKYR8UgzCvtp9hNSoKcf7cDVTbuCMovB98ehhOXmze5toK1O+Zi+CZ97EqfzViL+ehyI7ZTM9norZXVuBy3kWUWcsQER0I16ZTzFSVuH72Eipc+2NAkKvRj9ZMY7mvRfWkQ3n0ZURMKsUfL32HSZoXlyrkZcQi8dg8XNvzAjytG1FT+C+cLbJD0IBQeLb3pCp1NW6eO4+COhf0jQyHqBxENc5oVKDw/DncqLaBe1A4+vn0sMx2InNQVlxG3sUyWMsiEB3oanjOYzONuJd/FueK7REUE4a2MhTRvCkN6CNyjKhG60px4cwVVDsHM3t5t2iyTXwz2uMHHSbHtmRNjM7Gbgt1KL1wBleqnRHM7K8fxsb7qMeeucGYeX8V8lfHsrkWwS4oms1BLG+ZQDRWO6GL1nSJ9juQmwQ6GmfNiOeoB6cLHUa13Yhb6yZg0GcR2Jz9R+MfUZuzeQdipgVz2miEopDVATeqYeMehPB+PjC2TLH8ZLGdTOUJU3Oo34O5wTNxf1U+Vsey8YXcH83W0KHwMb8HaXkw9jKnPQMaa1D4r7OaPX1AqCfau7Xp01h9A6eZpruxPPOojyAU8/OwuKbqlA51WOTTB1u7GdDpnGIa0WKb8/DQXGwX/g0TOpBsfu4oTyxGTEomIt9+D/PiPNFYdASfvvE+imcdxOFFEcbPleRwfta0FNuFf5ugV1xwfjUoj+ONxP+G9UcH8Md4w+904pihuTArxN9+iZver5FfsE8fVNHO+f+MjbQ/hiSFw+sX6lH7QW/i+6+no8eRz7HstUV4+/8uou/rO5H5Gi+0OQ8rNpD2H4KkcC+eiH+t2EdjycGjvNDuCDZS9B+ShPBf6qb3a+QX7FP+zjaHw+FwOBwOh9NF8JeEHA6Hw+FwOBxOF8GLbQ6Hw+FwOBwOp4vgxTaHw+FwOBwOh9NF8GKbw+FwOBwOh8PpIowU242oLvgJ+cZ+YpnTaZS5f8DwhEW6ew85yhwsS0nCksMtP2vMeRAokbMsBUlLDrf8THNH6Uofcf93IQ9QA2ZorPoJBzb+Fav/8hU2H7mm+QXaTqHMxR+GJ2DRQeMz/0XlwAeCErl/GI6ERQd1938t/Oc03h40+hyyCCbk2y6UOcuQkrQEPEVy2hbb6utYPW0Anlp5Ea1/PJbTeai6GFcvF+nudSHK4/hgxmysbvMTwA8Qqkbx5UsorOJfaNMa5fEPMGP2anTM/ITq4su4VFjFbnWSrvQR938X8gA1YJJG3P7nYiSFpeL1vx/DhXNH8Lf/+RC7K3VP69EuPQu6uHoZRXLjM/+P5cCHBsHXV3G5SK67/2vhP6Hx9qPR55UimJBvuxD6unypEDxFcoyeRqL9MsAOqkNZjbKSctQYe2NcdQ/l5QrjRby6BhUlpaiq68jv/qtRU16KSiNtG+uqUFJ8GwojgyqrS1FSWce2HH0aUVdVguLbJubJUCnKUSZX6u6Zwnw/RmH2Ky2pRNulKFFdVoJyo4YVxipFqf6cVIU4vWcv8krbHq+uqUBJaZWRMbSo7pWjosa0H4T1l1aZfqmurC5DSXkN84o5xNbEELR0+16L/RrrUFlmzDY6mIbKS409L+4LzXra6MBSjK9BVXgae/bmobX5xfTIJsLmX2X6XZ52xIg5H5nTgGYuZXK2uraY61s0B+hhPP4EzOiiCaaHqpJi3DZuTNwrLzduZwEhF1XUtNPnHcszGkTsaYA5DVhoW3Hb6JDvxOJ5/wePPx5B7ua/YNUnf8XW/Z9ick/d83p0SM8CamHdIjprhtm2ooTpSiQOxWxo0i5MS6UlRn1mDnWNibxgzrattGXWRh1ELM8KObzc1IAW5xHTthPP8ULsVcDkFtIJjZvOGR31l5G9Uw/VvdvG93ozuUfB8oTpFCmudbE1ch5ihO/ZNkB1hd6Ld6SYZWepQfeQhrqD9NrgRHrzqO436qmespYm0uDXDpD2Z+HldPyjyRTu7U0BwTJylw2hBVvytb+Nz57L+dM4CpZ6UR9fL/Lw6U29fQNpwuc32PNyOvHJdIr29iDfvv4kdfOj5N9vpZvahiKw8d8cRuOXfk6LR/WngEAZubr2o2lrmn67P5feHdWXpFI/Cgn2Ilf3KEr/9rp2Pqqr9Lf0KPL26ENBvT0pYPKXlK8WmrxLo/pKSeoXQsFeruQelU7fXtdOpD57KSU/nkF/yRhLYYF+JHVyp9gF26iYtWuNWD91u+dQb/cZmtuGqOjq39IpitmhT1Bv8gyYTF8Kk2LIj39Ek8O9yTsgmGTuMhqyYAvl6+yjLttHy0YHktQ7kIJkbC0j3qGs/K9oapA79bCxJYlHb/INmkRri1hf8hP0yfRotm5f6usvJTe/ZPr91ptam9Rn09LkcfTmyvkU5WxNdmGL6HiTq5tQl9LuRUNJ5ib4sQ8NTn+BxnhKaebWWu3z8uP00eRw8vYOoGCZO8mGLKAtTRNthck1aebxOGWsfpPGhAeTXy9XCnjyU/rxX9/QnIQQ8veUkFvEHPp7U7/1WfTmsPG09PPFNKp/AAXKXMm13zRac0E7eTFfaNczTLcePxow6z1a9GQ8vbpfUHQdHXxtMCW+eVSrJ0Z91lJKHPwaHdAK3sQa1FT61VQKcu9BNrYS8ujtS0GT1lLRfRE9EmuzexENlbmRVx9f6jM4nV4Y40nSmVtJa9l2xIhZH5nTALP9XzJobFgg+UmdyD12AW1rErm5vkVzgB4m4k9ATOst1FHuu6Oor1RKfiHB5OXqTlHp31KTW+U5f6JxwVKNLb08fKg380HghM/phqqespcm07g3V9L8KGeytgujRcfvmvFzJ/KMOXsaYF4DFtnWjG30kW+YTO5BL9JBnZ6N0wE91+2mOb170ugFr9LIfv4U4ONKbqHP0F//rYvJVjlQfuITmh7tTR6+fclf6kZ+yb+nrU3iNmtD03ZRXf0bpUexfvsEUW/PAJr8Zb62iQj1WW/SsPFL6fPFo6h/QCDJXF2p37Q1pE0nYrY1oq2jR0RiXp862j2nN7nP2KK9d/A1Gpz4JrVstVm0NHEwvdaSeEznWXkO/WlcMEm9+pCvlwf59Gb5P3ACfX5DeN7yPGLSdiJja/bIcW/SyvlR5GxtR2GLjmseb6ETGjeRMzruLzYbI3tnDjOxRp89R9L8l0ZQv4DWe72ZPkt306KhMnIT7N9nMKW/MIY8pTOpJf2KaF0kL3IefiwvtmszKc1TRuk7mzbWOto1W9YcKDUHF1CI5yhaeb6G3VNR0XfTyM9nBm2qFLpcTkkuAyjjFDtSfYd2zA6m3mmb6A4boObAixTiOoiWZFWyUGTDXFhFY6S9aPy6W8IgIggJSkZ2jqGU/v0Nluoa6NrqcSTt+Rv6skSIwnO0bf1RKtJtmD+9P5Qk/RdSLgvC+sMLqK/HRFp/Wxixhgqu5LN/hSbbaP3RItazcOcnen+ohPovzBXuaQJQ1s2dEhftpVIWGzXHFlOkYxRlnDGwkgZz/RgttusP04K+HjRx/W2NHWoKrlC+MKmag7QgxJNGrTyvmaOq6Dua5udDMwTD0l3ake5H7iNX0gXBCepK+nHTDjpXr6Lasm9oopsvpW8rI/ndWuaRGjrwYgi5DlpCWZUaS9OFVWNI2ms8rbvF7gsbpMyBuvs9RsuzrtP1K0WkYEfpo9gzj/xdh9J759hgqhL64dVYktj00hVbNXRwQQh5jlpJWgkU0XfT/MhnxiYSZmqA2Jo08+hG7klL6CDzj7r4a5rANthe4VNZAc2OrjtHbw3qQaGvHdMVO8LxduQYmk7f32CPNFyj1eOk1PM3X5JWBqZ9Ib6eWspM8yRZ+k7dRsCG2jWbZE2JU2wNqloq+2Yiufmm07YyOd2tZYIR0SObCM3zd6Wh751jY6mo5IdXKVZiQ72aYqsdMWLOR+Y1wGyfuIj2akVOiyMdKSrjjCYXiPctmMR0DtDHVPyJa12fejq3bT0d1RqTufV9GirpTwsFY7L8tTzJhQZknGKrU9OdHbMpuHcabRKSjS5nOHT3o8eWZ9H161eoSGHGz53IM+bsaYA5DVhoW1HbGNBAp5ZEUPfBL9AHS9LpqTGpNPqpOfT2P65qY0Wf9upZs24bcgidywoxttKGq/T5Y+7U88mvqFQjM70cWHOAXgxxpUFLskgryQu0aoyUeo1fR4IkzdnQtF3q6fCCvuQxcT1pZVZAVzQJVRxNnrdzpND070mbTlbTOGlP+s2XJexZMdsa0ValiI0MMCy2azPTyFOWTi1b7S6aLWt6USuWZ1V0ZXkSuQzIIO1Wu4NmB/emtE13tLayOI+Ysp14jtfYzqE7+T22nLKuX6crRa12kE5o3FTO6Li/TO2duj5tXSnO6F4v1qeC9szzJ9eh75E2Rf5Ar8ZKyKZX054hrnWTeZHzi+ABfRtJPU5s3o7bseOQbFuIS5euQhGWgMj7uTh0th6qonyUOEViYJgDYO2GqEd9IS8oQo11PbL/nonSxOfxcoKb5pwWh9B0PD/WFod2HNB2LYoVJI9nYMVEf9jDFoFTpiJRlY39uUrAPgLjpydCZqNAWX4h1F6+cC4vRkkjm4KLK5xrz2PvrvOQNzrCN9gPjqw3+4jxmJ4og42iDPmFanj5OqO8uEQ7FMNKMhovL0uFpw3gGJWKBI8CXLna9iMmc/0YxdoFrs61OL93F87LG+HoGww/Nqn6E5ux/XYsxiXbovDSJVxVhCEh8j5yD51FfX0WMvfcxbBnn0UoM61g2+inxyHC3gYOTg6ws7KCnaMLXCQOsKnPxt8zS5H4/MtIcNNYGqHpz2Os7SHsONB0SZQ9khZ9wXwRgIBgGQx/QFiJ07v2oyIhDc9FsMFsvDDyrQxM9NBJqP4ENm+/jdhxybAtvIRLVxUIS4jE/dxDYBIwQHRNwgFWEox+6U0kS61h7TkMSf0b4ffUYjwbygzSLQTxsVLcun6j5ZQQdvzjGSsw0d8esA3ElKmJUGXvh1YGpnxhZj1mEF2DjQOcHOxgZWUHRxcXSByYYET0qDy9C/srEpD2XATzig28Rr6FjIkeunO82hMj5nxkgQYE27+8DKlakSM1wQMFV66yns3ZSzwH6GMq/szqohl7RIyfjkSZDRRl+ShUe8HXuRzFgjFVRcgvcULkwDC2Omu4RT0KX3kBimqa5slaJy3CFy8nICAgGDKLfiW7Y3lG29SUPQ0xpwFLbStqGwPUqJbfg+raaVx0HoG5i9/AnIG38ZcpT+DNrFZ9tlPPGqxcMD7jA0zws2UxGYRp05KgytLGpD712X9HZmkinmf+0EoyFOnPj4XtoR1oTksmbShmlwa4uDqj9vxe7DovR6OjL4KFhGoBVpLHkbFiIrTpZAqmJqqQvT+XPWPetgbacjNjo44gmmdVKMovgVPkQGi32ig86itHQVEN01F78oi1cdtZkuPtk7DoC5ZfAgIQ3Cq4OqNxUzlDoEP+Mrl3arqEles4LDS614v0qTyNXfsrkJD2HLQpciTeypiIlvQrrnWxNXIefnQy6CxqlJaW4/7xVUibMgVThL+Za1AYFAF/Fxt0ixyOeOzBR+98h3/uXItla8+iX/JQ+Fgrcau4As4+PnDS9cTCBd7evaCqKNfdF8fazh52uttwkELqXIMq4WSpxlvY+cZohPgEIW7sU5j21g+400ia86BsI1/BmuUJ+OmNeASEPoEl225oNr/GWzvxxugQ+ATFYexT0/DWD3fQSIaZ0Ur3f7CNx96uESoj55VZ0k8bbCPxyprlSPjpDcQHhOKJJdtwg01KXVqK8vvHsSpNZ9cpM7GmMAgR/i6wUZahrMoVnl5CtjCD8haKK5zh49Niadh6w7uXChXlugtzrOwh9ZKaEIUKZWV34OTpBYnuEVjZwqbpYHUpSsvv4/iqNN08p2DmmkIERfiDScAA0TXpjmkxtD2zsxXb6HV32RP29nZoVOsb3hp27LEmHKRSONdUac6ZM+0LM+sxg0Vr0EdEj6qyMtxx8oRXy0Rg2zyR9sSImTVZogEBPVsLdm3UiNycvcRzgD6m4s9ymzbi1s43MDrEB0FxY/HUtLfww51GaNzaLRLD44E9H72D7/65E2uXrcXZfskY6tM0UaYfqRfY67h20ZE804xRexoirgHLbStqGwOsYGNjA7uY5/Dua9MweuhwPP3qW5gVehP79v5bd4wIZtctxCQrtHVoY7ISla3qeOWtYlQ4+8BQkt7opapAuVxv0kZtKGaXboh8ZQ2WJ/yEN+IDEPrEEmwTEqolWAu5XXeblYVSqTNqqqrYbXO2baUtS7TRXkTzLFuzVvx457t/YufaZVh7th+Sh/owb7Qnj9gat50FOd7KXgovE8HVGY2byhkaOuIvC/bOFsnp7/UifapYn3ecWJ/NC2Qp0qZ5PzWnddE1ch56jEeFUaxhY9WAhgbdXbCkob2SkmENiYsEPUa8g5y8POTp/s6cysQr0bZQXszBj5IBCCnbis9W70e3tA3YvDiahbQdnJ27Q1FZpSeqRpTfkcPe3VN33xx6F3Iqq1CpcELPnt1Qf+BtzP9MibmH8nHj4lmc+GISK+51x7FyIXruWuReu4CN02qx7tkX8U1pLQ68PR+fKefiUP4NXDx7Al9MEpJUe6nvcD+S6LlYm3sNFzZOQ+26Z/HiN6WwlrhA0mME3slpsWvemVPIfIXZz04CicM9yI19TaMwYHO2YNg5w7m7ApVVeuHbWI47cnu4e7rqHhDDBj2cHFkSq2Qr1CGchqS7ySYKF0kPjHgnp2WeeWdwKvMVMAkYILom3THtxkAGlVA49UTPbmK+ENbTQ5OUWySttx6GtY0V03vzsyyhtjxvbg2tzS+mR5seTnBkLw5aChHh9C7dzXbFiBkfdUoDZvpmKxbLAYYYi79Gy3VRfwBvz/8MyrmHkH/jIs6e+AKTmoypvIicHyUYEFKGrZ+txv5uadiweXEbDeoj5ucW9B6xOM9YjrgG2mFbMdsYYANvHw9Q2S3cavqIyMoR3bvpq7aF9ui5GQOTVeliUveADjtnZ3RXVMJQkncgt3eHp6s5Q5qxiyQac9fm4tqFjZhWuw7PvviNrp15WqauRFWlAk49e7bDtlo6rA1rG1gxPbbkJVbMNU1INM8qcTHnR0gGhKBs62dYvb8b0jZsxmKNRtq51xqzXTtyvDE6p3HjOaOJdvtLbO8UQ6xPmx5wcmQvwvVeUVLLAi3QuvgaOQ83JkKfUFd5E/++cAEX2N/FyyWosfWFr5cCF/Iua4JVcXIFPth6m4WrgD0GJsfB9sgGfJ/fIl5ltRz3hf8XF6HsfgMkoSPx5OQJSA13huq+cJw94kckwProBmy8qW2nLtyMr/eokDIhRXO/7sTn+O9XvzbxlVME+e6PseKE8Hkje8W5ZSOOWidgRLw91PIq3LXzhK8Pe+XaWInj+06hQqfbussnkVfOxnPwR8qUFPRpuIfqOjXkVXdh5+kLbZPj2HeqQre+9tDBfuou42ReOWvtAP+UKUjp04B71XWwH5iMONsj2PB9PntOh7IacsGw9oMwdJAahzdthzYmq5G3/ltkK4Tb3eHYTYGKO7rIto/HiARrHN2wEVpTq1G4+WvsUaVgQkrLK3HT2CEmPgbWx7Zjp2YwBU5//CEym5KB/UAkx9niyIbv0SIBJao1EzVEdE0dgeTY/fEKaGVwC1s2HoV1wgjE24v5QlhPtGY9O4yth5V3vr5eUFzIw2Wt4LHig6243bxcM2vo7ohuigo0mV9Mj3Yx8YixPobtO0s1c1Oc/hgfZmpvs5HMxkgL5nzUGQ2Y6dtMDtDHePy1QxdqOaru2sHT14dFSyMqj+/DqSZjKotRVHYfDZJQjHxyMiakhsNZdb+lvzaI+1lLx/JMezCnAUttK2obA2zgPywRfa7sxJY8ZnxGHSus/nHBB0nJ/TT3DWiHnjUIMflJU0wWI/P7o7DRxKT26Sbs40cgwfooNmy8qfWRuhCbv94DVcoEmE9LYnapw+WTedDKLAVTUvqg4V619oC6E/j8v1/F1ya+x5Dku/HxihOa7xtvvLUFG49aI2FEfDtsq6Wj2rD19YWX4gLytILEyRUfYGtL4hHJs0oUF5XhfoMEoSOfxOQJqQh3VkGz1bYrj5iwXTtyvDE6o3FTOUOgQ/4S3TtFEOvTLgbxMdY4tn2ntk/FaXz8YaaufzakGa2bWmNj4Xa8NX8ZttxosQvnIUR76rYe6gL6dGQPshJ2GN2fleOT9PVdFV37ajL5O0kpdMggCo99hpbNG0i+s7ZrLyxquErfpkeSu3sIxaeOouGDHyHf8Jdobx3r8uZf6UmZPyWnzaH0Wc/Q08NDyM3nMfr03yrW7if6Oi2Menr0o8SUJAr1llHcgq1UwJ5iLan4kxHk4PUc7dAMoo/2ohKX2HE0sl8IDUyKod6ugfT0at23BFTto4UxrtQzJJ6GRIbSsFmTaIAsjTJZP5Xb5lGId1+KS0mmKJmUIp7forlAoWrfQopx7Ukh8UMoMnQYzZo0gGRpmdrR9v2OAmWz6B9N86jPoYWhUpq+qc3EzPYT4DNLc9uAym00L8Sb+salUHKUjKQRz9MWzRVCDXT123SKdHdn/aXSqOGD6RHfcHpJMCyjNm8VPdHHlWRRyTQ8JoAChv+RcoSrKtR3KDM9kJy8I2lo4m9pbYGamfprSgvrSR79EiklKZS8ZXG0YGsBaUxdt49+FyijWc0LNELNSfpzqje5+MVS8uBQipmylOYM8qVZ27VtGq5+S+mR7uTObJ46ajgNfsSXwl/a2/aCK7E1tZ6HuoxWj3GlwW9f0M6TeTfntVDqOXmD9uIR4QKq3i4UO24k9QsZSEkxvck18Glarfs2EjFfCOt5f4SXbj39KfLJqZQsbfl2DdW1r2iyvxNJQ4fQoPBYembZPBroO4u0yxX3i/pOJqUHOpF35FBK/O1aKqgwrUfhYpiTf04lbxc/ik0eTKExU2jpnEF6sSUWI60w56N2aYDZemEoSadv0s7DTN9iOUAfU/FnzqYtVNG+hTHk2pONMySSQofNokkDZJQmGFN9k/76pIz8k9NoTvoseubp4RTi5kOPffpvtsY62ve7QJLN+od2PTrE/dzxPGPWngaY04BlthW1TWvUt2jr/Chy6xVCCSnx1NfDl1Iy9msvimtFu/TM1v1CcDg9PWckhQTH0lAhJgMm0BdN3xBkkAMb6Kev0yispwf1S0yhpFBvksUtoK1N4jZnQ5N2qaRt80LIu28cpSRHkUwaQc9v0V4IqC7+hEY4eNFzbTcVzcVxvV1iadzIfhQyMIliertS4NOrdd9uIWZbI9oS04YBQtsA8mFtNaiu0VeT/clJGkpDBoVT7DPLaN5AS/Ksmm7+9UmS+SdT2px0mvXM0zQ8xI18HvuUhK3W8jxi2nZiOb7NHtmGjmvcVM7ouL9M750afZrc68X7rDn5Z0r1diG/2GQaHBpDU5bOoUF6e4aY1k2tsT7ndQqT9KUF4l8bxPmZ07bYFkVNioI8ys65QKXavNkKNd0rOEvZh4/QsQu3SKFJ2vV05KUQ8py6keSaYxgNZ2hpZA8a+Vmp5qpo4cpj+Y0fKetwDv2rWO/6W3URrR3vQzFLco1sTi1XcNcoCuhMVg6dL2l1VEMFXTuVQyeuVunGaaH+ziU6fuQInbxWpSvitDRUXKNTOSfoalXrFu2jQ/3U36FLx4/QkZPXqKpVAlTfK6Cz2YfpyLELdEtr2BZqS+h8zhHKPl9saCe1nK6fOEJZZ2+1XNWsktONH7PocM6/SN/UFqO+SzdZ+5zzJZoE2wb1PSo4m02HjxyjC7cUbeyuj+iaLEVTbLvTjC01TJtnKCvnPLWVgYgv2HpunDpK2eeY7Wr1r/rXombaysvOoQvGBS+6BrX8Op04kkVnb+kMLaJHdjTdvcliQJi/UcOaiBFjmPNRZzRgrm+2jrY5oC2m4k/AMl00UMW1U5Rz4irpu7X+yEsU4jmVNrYkGzqzNJJ6jPxM800YpjDt587lmfZhTgOW2daUbYyjosqrJ+jI4WP07zLjHm2ifXoWYPPNF9bDdNbKZK1RyW/Qj1mHKedfxS25ymJM2aWe7lw6TkeOnKRrzQlVTUVrx5NPzBLKNTInTfHmPoO21Cio4IxW54aHtce2jI5qQ83Gz8umnAul2hd1rTGWZ+uP0EshnjS1Rfxsq11KkT1G0mfN4rc0jxiznY525Pi2dFzjxnJGp/1lau8URbxP9d2bTMtCnjAeT2JaF8uLnIebdhbbHaGeji8Kox79ptPKzMN0LPcgbfrTRArpNYTePdfmC7AMqD+2mAYOWkI5rb+DTkPLJmh5kHB+cTQX2w9ABQZfscV5GKk/vojCevSj6Ssz6fCxXDq46U80MaQXDXn3HNsiOwLPM78o6o/R4oGDaInxTaWleHsYnV1/nBaF9aB+01dSJnvxlHtwE/1pYgj1GvIumdlqH1oean9xflXY/IEhnE7SddhAFj8cjyhOY8eWzdi2JxuXGiKQvuIjzI+RGFx00xobjzhMf24MArvrHmhF9dWTyO+VikmJvmwUzq+Talw9mY9eqZOQ6NtZFdzFtZMF6DWS9dWbK+phxEYWj+GPKHB6xxZs3rYH2ZcaEJG+Ah/Nj4FELNmIwPPMLwgbD8RNfw5jTG8qOJnfC6mTEtHpdPKfxkaG+OGPQHF6B7Zs3oY92ZfQEJGOFR/NR0xHxf9z52H2F+dXhZVQcetuczgcDofD4XA4nAeIJV9ExOFwOBwOh8PhcDoAL7Y5HA6Hw+FwOJwughfbHA6Hw+FwOBxOF8GLbQ6Hw+FwOBwOp4vgxTaHw+FwOBwOh9NF8GKbw+FwOBwOh8PpInixzeFwOBwOh8PhdBG82OZwOBwOh8PhcLoIXmxzOBwOh8PhcDhdBC+2ORwOh8PhcDicLoIX2xwOh8PhcDgcThfBi20Oh8PhcDgcDqeL4MU2h8PhcDgcDofTJQD/DxKPGj6tEnwoAAAAAElFTkSuQmCC;" vertex="1" parent="1">
          <mxGeometry width="731" height="208" as="geometry" />
        </mxCell>
      </root>
    </mxGraphModel>
  </diagram>
</mxfile>
